<?xml version="1.0" encoding="UTF-8" standalone="no"?>
<!DOCTYPE svg PUBLIC "-//W3C//DTD SVG 1.1//EN"
 "http://www.w3.org/Graphics/SVG/1.1/DTD/svg11.dtd">
<!-- Generated by graphviz version 2.43.0 (0)
 -->
<!-- Title: src/os/__osViGetCurrentContext.c Pages: 1 -->
<svg width="303pt" height="203pt"
 viewBox="0.00 0.00 303.00 203.00" xmlns="http://www.w3.org/2000/svg" xmlns:xlink="http://www.w3.org/1999/xlink">
<g id="graph0" class="graph" transform="scale(1 1) rotate(0) translate(4 199)">
<title>src/os/__osViGetCurrentContext.c</title>
<!-- Node1 -->
<g id="Node000001" class="node">
<title>Node1</title>
<g id="a_Node000001"><a xlink:title=" ">
<polygon fill="#999999" stroke="#666666" points="179,-195 0,-195 0,-176 179,-176 179,-195"/>
<text text-anchor="middle" x="89.5" y="-183" font-family="Helvetica,sans-Serif" font-size="10.00">src/os/__osViGetCurrentContext.c</text>
</a>
</g>
</g>
<!-- Node2 -->
<g id="Node000002" class="node">
<title>Node2</title>
<g id="a_Node000002"><a xlink:href="libultra__internal_8h.html" target="_top" xlink:title=" ">
<polygon fill="white" stroke="#666666" points="141,-140 38,-140 38,-121 141,-121 141,-140"/>
<text text-anchor="middle" x="89.5" y="-128" font-family="Helvetica,sans-Serif" font-size="10.00">libultra_internal.h</text>
</a>
</g>
</g>
<!-- Node1&#45;&gt;Node2 -->
<g id="edge1_Node000001_Node000002" class="edge">
<title>Node1&#45;&gt;Node2</title>
<g id="a_edge1_Node000001_Node000002"><a xlink:title=" ">
<path fill="none" stroke="#63b8ff" d="M89.5,-175.75C89.5,-168.8 89.5,-158.85 89.5,-150.13"/>
<polygon fill="#63b8ff" stroke="#63b8ff" points="93,-150.09 89.5,-140.09 86,-150.09 93,-150.09"/>
</a>
</g>
</g>
<!-- Node3 -->
<g id="Node000003" class="node">
<title>Node3</title>
<g id="a_Node000003"><a xlink:title=" ">
<polygon fill="#e0e0e0" stroke="#999999" points="88.5,-24.5 8.5,-24.5 8.5,-5.5 88.5,-5.5 88.5,-24.5"/>
<text text-anchor="middle" x="48.5" y="-12.5" font-family="Helvetica,sans-Serif" font-size="10.00">libultraship.h</text>
</a>
</g>
</g>
<!-- Node2&#45;&gt;Node3 -->
<g id="edge2_Node000002_Node000003" class="edge">
<title>Node2&#45;&gt;Node3</title>
<g id="a_edge2_Node000002_Node000003"><a xlink:title=" ">
<path fill="none" stroke="#63b8ff" d="M86.42,-120.97C79.8,-102.65 64.1,-59.18 55.11,-34.31"/>
<polygon fill="#63b8ff" stroke="#63b8ff" points="58.31,-32.85 51.62,-24.63 51.72,-35.22 58.31,-32.85"/>
</a>
</g>
</g>
<!-- Node4 -->
<g id="Node000004" class="node">
<title>Node4</title>
<g id="a_Node000004"><a xlink:href="macros_8h.html" target="_top" xlink:title=" ">
<polygon fill="white" stroke="#666666" points="156.5,-85 94.5,-85 94.5,-66 156.5,-66 156.5,-85"/>
<text text-anchor="middle" x="125.5" y="-73" font-family="Helvetica,sans-Serif" font-size="10.00">macros.h</text>
</a>
</g>
</g>
<!-- Node2&#45;&gt;Node4 -->
<g id="edge3_Node000002_Node000004" class="edge">
<title>Node2&#45;&gt;Node4</title>
<g id="a_edge3_Node000002_Node000004"><a xlink:title=" ">
<path fill="none" stroke="#63b8ff" d="M95.44,-120.75C100.48,-113.34 107.84,-102.5 114.01,-93.41"/>
<polygon fill="#63b8ff" stroke="#63b8ff" points="116.94,-95.33 119.67,-85.09 111.15,-91.39 116.94,-95.33"/>
</a>
</g>
</g>
<!-- Node4&#45;&gt;Node3 -->
<g id="edge5_Node000004_Node000003" class="edge">
<title>Node4&#45;&gt;Node3</title>
<g id="a_edge5_Node000004_Node000003"><a xlink:title=" ">
<path fill="none" stroke="#63b8ff" d="M114.14,-65.87C102.08,-56.71 82.8,-42.06 68.25,-31.01"/>
<polygon fill="#63b8ff" stroke="#63b8ff" points="69.99,-27.93 59.91,-24.67 65.75,-33.5 69.99,-27.93"/>
</a>
</g>
</g>
<!-- Node5 -->
<g id="Node000005" class="node">
<title>Node5</title>
<g id="a_Node000005"><a xlink:href="math_8h.html" target="_top" xlink:title=" ">
<polygon fill="white" stroke="#666666" points="158,-24.5 107,-24.5 107,-5.5 158,-5.5 158,-24.5"/>
<text text-anchor="middle" x="132.5" y="-12.5" font-family="Helvetica,sans-Serif" font-size="10.00">math.h</text>
</a>
</g>
</g>
<!-- Node4&#45;&gt;Node5 -->
<g id="edge4_Node000004_Node000005" class="edge">
<title>Node4&#45;&gt;Node5</title>
<g id="a_edge4_Node000004_Node000005"><a xlink:title=" ">
<path fill="none" stroke="#63b8ff" d="M126.53,-65.87C127.5,-57.75 128.99,-45.31 130.24,-34.89"/>
<polygon fill="#63b8ff" stroke="#63b8ff" points="133.75,-35.01 131.46,-24.67 126.8,-34.18 133.75,-35.01"/>
</a>
</g>
</g>
<!-- Node6 -->
<g id="Node000006" class="node">
<title>Node6</title>
<g id="a_Node000006"><a xlink:title=" ">
<polygon fill="#e0e0e0" stroke="#999999" points="295,-30 176,-30 176,0 295,0 295,-30"/>
<text text-anchor="start" x="184" y="-18" font-family="Helvetica,sans-Serif" font-size="10.00">ship/utils/binarytools</text>
<text text-anchor="middle" x="235.5" y="-7" font-family="Helvetica,sans-Serif" font-size="10.00">/endianness.h</text>
</a>
</g>
</g>
<!-- Node4&#45;&gt;Node6 -->
<g id="edge6_Node000004_Node000006" class="edge">
<title>Node4&#45;&gt;Node6</title>
<g id="a_edge6_Node000004_Node000006"><a xlink:title=" ">
<path fill="none" stroke="#63b8ff" d="M141.73,-65.87C157,-57.75 180.39,-45.31 199.98,-34.89"/>
<polygon fill="#63b8ff" stroke="#63b8ff" points="201.77,-37.9 208.96,-30.11 198.49,-31.72 201.77,-37.9"/>
</a>
</g>
</g>
</g>
</svg>
