<?xml version="1.0" encoding="UTF-8" standalone="no"?>
<!DOCTYPE svg PUBLIC "-//W3C//DTD SVG 1.1//EN"
 "http://www.w3.org/Graphics/SVG/1.1/DTD/svg11.dtd">
<!-- Generated by graphviz version 2.43.0 (0)
 -->
<!-- Title: src/actors/banana/render.inc.c Pages: 1 -->
<svg width="380pt" height="313pt"
 viewBox="0.00 0.00 379.52 313.00" xmlns="http://www.w3.org/2000/svg" xmlns:xlink="http://www.w3.org/1999/xlink">
<g id="graph0" class="graph" transform="scale(1 1) rotate(0) translate(4 309)">
<title>src/actors/banana/render.inc.c</title>
<!-- Node1 -->
<g id="Node000001" class="node">
<title>Node1</title>
<g id="a_Node000001"><a xlink:title=" ">
<polygon fill="#999999" stroke="#666666" points="256.02,-305 94.02,-305 94.02,-286 256.02,-286 256.02,-305"/>
<text text-anchor="middle" x="175.02" y="-293" font-family="Helvetica,sans-Serif" font-size="10.00">src/actors/banana/render.inc.c</text>
</a>
</g>
</g>
<!-- Node2 -->
<g id="Node000002" class="node">
<title>Node2</title>
<g id="a_Node000002"><a xlink:href="actors_8h.html" target="_top" xlink:title=" ">
<polygon fill="white" stroke="#666666" points="144.52,-250 55.52,-250 55.52,-231 144.52,-231 144.52,-250"/>
<text text-anchor="middle" x="100.02" y="-238" font-family="Helvetica,sans-Serif" font-size="10.00">racing/actors.h</text>
</a>
</g>
</g>
<!-- Node1&#45;&gt;Node2 -->
<g id="edge1_Node000001_Node000002" class="edge">
<title>Node1&#45;&gt;Node2</title>
<g id="a_edge1_Node000001_Node000002"><a xlink:title=" ">
<path fill="none" stroke="#63b8ff" d="M162.97,-285.98C151.56,-277.92 134.19,-265.65 120.59,-256.03"/>
<polygon fill="#63b8ff" stroke="#63b8ff" points="122.48,-253.08 112.29,-250.17 118.44,-258.8 122.48,-253.08"/>
</a>
</g>
</g>
<!-- Node10 -->
<g id="Node000010" class="node">
<title>Node10</title>
<g id="a_Node000010"><a xlink:href="code__800029B0_8h.html" target="_top" xlink:title=" ">
<polygon fill="white" stroke="#666666" points="228.52,-195 125.52,-195 125.52,-176 228.52,-176 228.52,-195"/>
<text text-anchor="middle" x="177.02" y="-183" font-family="Helvetica,sans-Serif" font-size="10.00">code_800029B0.h</text>
</a>
</g>
</g>
<!-- Node1&#45;&gt;Node10 -->
<g id="edge19_Node000001_Node000010" class="edge">
<title>Node1&#45;&gt;Node10</title>
<g id="a_edge19_Node000001_Node000010"><a xlink:title=" ">
<path fill="none" stroke="#63b8ff" d="M175.19,-285.66C175.51,-268.17 176.24,-228.8 176.68,-205.27"/>
<polygon fill="#63b8ff" stroke="#63b8ff" points="180.18,-205.22 176.86,-195.16 173.18,-205.09 180.18,-205.22"/>
</a>
</g>
</g>
<!-- Node12 -->
<g id="Node000012" class="node">
<title>Node12</title>
<g id="a_Node000012"><a xlink:title=" ">
<polygon fill="#e0e0e0" stroke="#999999" points="281.02,-250 203.02,-250 203.02,-231 281.02,-231 281.02,-250"/>
<text text-anchor="middle" x="242.02" y="-238" font-family="Helvetica,sans-Serif" font-size="10.00">libultra/gbi.h</text>
</a>
</g>
</g>
<!-- Node1&#45;&gt;Node12 -->
<g id="edge20_Node000001_Node000012" class="edge">
<title>Node1&#45;&gt;Node12</title>
<g id="a_edge20_Node000001_Node000012"><a xlink:title=" ">
<path fill="none" stroke="#63b8ff" d="M185.79,-285.98C195.79,-278.07 210.91,-266.11 222.96,-256.58"/>
<polygon fill="#63b8ff" stroke="#63b8ff" points="225.39,-259.12 231.06,-250.17 221.05,-253.63 225.39,-259.12"/>
</a>
</g>
</g>
<!-- Node3 -->
<g id="Node000003" class="node">
<title>Node3</title>
<g id="a_Node000003"><a xlink:href="actor__types_8h.html" target="_top" xlink:title=" ">
<polygon fill="white" stroke="#666666" points="211.52,-140 128.52,-140 128.52,-121 211.52,-121 211.52,-140"/>
<text text-anchor="middle" x="170.02" y="-128" font-family="Helvetica,sans-Serif" font-size="10.00">actor_types.h</text>
</a>
</g>
</g>
<!-- Node2&#45;&gt;Node3 -->
<g id="edge2_Node000002_Node000003" class="edge">
<title>Node2&#45;&gt;Node3</title>
<g id="a_edge2_Node000002_Node000003"><a xlink:title=" ">
<path fill="none" stroke="#63b8ff" d="M100.71,-230.61C102.07,-217.68 105.99,-193.33 117.02,-176 124.59,-164.12 136.33,-153.8 146.84,-146.09"/>
<polygon fill="#63b8ff" stroke="#63b8ff" points="149.04,-148.82 155.27,-140.25 145.05,-143.07 149.04,-148.82"/>
</a>
</g>
</g>
<!-- Node2&#45;&gt;Node10 -->
<g id="edge11_Node000002_Node000010" class="edge">
<title>Node2&#45;&gt;Node10</title>
<g id="a_edge11_Node000002_Node000010"><a xlink:title=" ">
<path fill="none" stroke="#63b8ff" d="M112.4,-230.98C124.11,-222.92 141.94,-210.65 155.91,-201.03"/>
<polygon fill="#63b8ff" stroke="#63b8ff" points="158.18,-203.72 164.43,-195.17 154.21,-197.96 158.18,-203.72"/>
</a>
</g>
</g>
<!-- Node11 -->
<g id="Node000011" class="node">
<title>Node11</title>
<g id="a_Node000011"><a xlink:href="camera_8h.html" target="_top" xlink:title=" ">
<polygon fill="white" stroke="#666666" points="97.02,-140 35.02,-140 35.02,-121 97.02,-121 97.02,-140"/>
<text text-anchor="middle" x="66.02" y="-128" font-family="Helvetica,sans-Serif" font-size="10.00">camera.h</text>
</a>
</g>
</g>
<!-- Node2&#45;&gt;Node11 -->
<g id="edge18_Node000002_Node000011" class="edge">
<title>Node2&#45;&gt;Node11</title>
<g id="a_edge18_Node000002_Node000011"><a xlink:title=" ">
<path fill="none" stroke="#63b8ff" d="M96.37,-230.73C92.72,-221.82 87.1,-207.59 83.02,-195 78.18,-180.05 73.63,-162.82 70.46,-150.08"/>
<polygon fill="#63b8ff" stroke="#63b8ff" points="73.82,-149.1 68.05,-140.21 67.02,-150.75 73.82,-149.1"/>
</a>
</g>
</g>
<!-- Node4 -->
<g id="Node000004" class="node">
<title>Node4</title>
<g id="a_Node000004"><a xlink:title=" ">
<polygon fill="#e0e0e0" stroke="#999999" points="117.02,-24.5 37.02,-24.5 37.02,-5.5 117.02,-5.5 117.02,-24.5"/>
<text text-anchor="middle" x="77.02" y="-12.5" font-family="Helvetica,sans-Serif" font-size="10.00">libultraship.h</text>
</a>
</g>
</g>
<!-- Node3&#45;&gt;Node4 -->
<g id="edge3_Node000003_Node000004" class="edge">
<title>Node3&#45;&gt;Node4</title>
<g id="a_edge3_Node000003_Node000004"><a xlink:title=" ">
<path fill="none" stroke="#63b8ff" d="M167.09,-120.6C162.52,-107.64 152.79,-83.27 139.02,-66 127.82,-51.94 112,-39.27 99.15,-30.2"/>
<polygon fill="#63b8ff" stroke="#63b8ff" points="101.06,-27.26 90.82,-24.52 97.12,-33.05 101.06,-27.26"/>
</a>
</g>
</g>
<!-- Node5 -->
<g id="Node000005" class="node">
<title>Node5</title>
<g id="a_Node000005"><a xlink:href="macros_8h.html" target="_top" xlink:title=" ">
<polygon fill="white" stroke="#666666" points="323.02,-85 261.02,-85 261.02,-66 323.02,-66 323.02,-85"/>
<text text-anchor="middle" x="292.02" y="-73" font-family="Helvetica,sans-Serif" font-size="10.00">macros.h</text>
</a>
</g>
</g>
<!-- Node3&#45;&gt;Node5 -->
<g id="edge4_Node000003_Node000005" class="edge">
<title>Node3&#45;&gt;Node5</title>
<g id="a_edge4_Node000003_Node000005"><a xlink:title=" ">
<path fill="none" stroke="#63b8ff" d="M189.63,-120.98C209.34,-112.42 239.98,-99.11 262.61,-89.28"/>
<polygon fill="#63b8ff" stroke="#63b8ff" points="264.29,-92.37 272.07,-85.17 261.5,-85.94 264.29,-92.37"/>
</a>
</g>
</g>
<!-- Node8 -->
<g id="Node000008" class="node">
<title>Node8</title>
<g id="a_Node000008"><a xlink:href="common__structs_8h.html" target="_top" xlink:title=" ">
<polygon fill="white" stroke="#666666" points="130.52,-85 23.52,-85 23.52,-66 130.52,-66 130.52,-85"/>
<text text-anchor="middle" x="77.02" y="-73" font-family="Helvetica,sans-Serif" font-size="10.00">common_structs.h</text>
</a>
</g>
</g>
<!-- Node3&#45;&gt;Node8 -->
<g id="edge8_Node000003_Node000008" class="edge">
<title>Node3&#45;&gt;Node8</title>
<g id="a_edge8_Node000003_Node000008"><a xlink:title=" ">
<path fill="none" stroke="#63b8ff" d="M155.08,-120.98C140.53,-112.69 118.16,-99.94 101.09,-90.22"/>
<polygon fill="#63b8ff" stroke="#63b8ff" points="102.66,-87.08 92.24,-85.17 99.19,-93.16 102.66,-87.08"/>
</a>
</g>
</g>
<!-- Node9 -->
<g id="Node000009" class="node">
<title>Node9</title>
<g id="a_Node000009"><a xlink:title=" ">
<polygon fill="#e0e0e0" stroke="#999999" points="243.02,-85 187.02,-85 187.02,-66 243.02,-66 243.02,-85"/>
<text text-anchor="middle" x="215.02" y="-73" font-family="Helvetica,sans-Serif" font-size="10.00">assert.h</text>
</a>
</g>
</g>
<!-- Node3&#45;&gt;Node9 -->
<g id="edge10_Node000003_Node000009" class="edge">
<title>Node3&#45;&gt;Node9</title>
<g id="a_edge10_Node000003_Node000009"><a xlink:title=" ">
<path fill="none" stroke="#63b8ff" d="M177.46,-120.75C183.88,-113.18 193.33,-102.05 201.15,-92.84"/>
<polygon fill="#63b8ff" stroke="#63b8ff" points="203.93,-94.98 207.73,-85.09 198.59,-90.45 203.93,-94.98"/>
</a>
</g>
</g>
<!-- Node5&#45;&gt;Node4 -->
<g id="edge6_Node000005_Node000004" class="edge">
<title>Node5&#45;&gt;Node4</title>
<g id="a_edge6_Node000005_Node000004"><a xlink:title=" ">
<path fill="none" stroke="#63b8ff" d="M260.76,-65.99C223.1,-55.75 159.73,-38.5 118.14,-27.19"/>
<polygon fill="#63b8ff" stroke="#63b8ff" points="118.89,-23.77 108.33,-24.52 117.06,-30.52 118.89,-23.77"/>
</a>
</g>
</g>
<!-- Node6 -->
<g id="Node000006" class="node">
<title>Node6</title>
<g id="a_Node000006"><a xlink:href="math_8h.html" target="_top" xlink:title=" ">
<polygon fill="white" stroke="#666666" points="371.52,-24.5 320.52,-24.5 320.52,-5.5 371.52,-5.5 371.52,-24.5"/>
<text text-anchor="middle" x="346.02" y="-12.5" font-family="Helvetica,sans-Serif" font-size="10.00">math.h</text>
</a>
</g>
</g>
<!-- Node5&#45;&gt;Node6 -->
<g id="edge5_Node000005_Node000006" class="edge">
<title>Node5&#45;&gt;Node6</title>
<g id="a_edge5_Node000005_Node000006"><a xlink:title=" ">
<path fill="none" stroke="#63b8ff" d="M299.99,-65.87C308.13,-57.05 320.95,-43.16 331,-32.27"/>
<polygon fill="#63b8ff" stroke="#63b8ff" points="333.81,-34.39 338.02,-24.67 328.67,-29.64 333.81,-34.39"/>
</a>
</g>
</g>
<!-- Node7 -->
<g id="Node000007" class="node">
<title>Node7</title>
<g id="a_Node000007"><a xlink:title=" ">
<polygon fill="#e0e0e0" stroke="#999999" points="302.52,-30 183.52,-30 183.52,0 302.52,0 302.52,-30"/>
<text text-anchor="start" x="191.52" y="-18" font-family="Helvetica,sans-Serif" font-size="10.00">ship/utils/binarytools</text>
<text text-anchor="middle" x="243.02" y="-7" font-family="Helvetica,sans-Serif" font-size="10.00">/endianness.h</text>
</a>
</g>
</g>
<!-- Node5&#45;&gt;Node7 -->
<g id="edge7_Node000005_Node000007" class="edge">
<title>Node5&#45;&gt;Node7</title>
<g id="a_edge7_Node000005_Node000007"><a xlink:title=" ">
<path fill="none" stroke="#63b8ff" d="M284.79,-65.87C278.64,-58.52 269.52,-47.63 261.38,-37.91"/>
<polygon fill="#63b8ff" stroke="#63b8ff" points="263.95,-35.53 254.85,-30.11 258.59,-40.03 263.95,-35.53"/>
</a>
</g>
</g>
<!-- Node8&#45;&gt;Node4 -->
<g id="edge9_Node000008_Node000004" class="edge">
<title>Node8&#45;&gt;Node4</title>
<g id="a_edge9_Node000008_Node000004"><a xlink:title=" ">
<path fill="none" stroke="#63b8ff" d="M77.02,-65.87C77.02,-57.75 77.02,-45.31 77.02,-34.89"/>
<polygon fill="#63b8ff" stroke="#63b8ff" points="80.52,-34.67 77.02,-24.67 73.52,-34.67 80.52,-34.67"/>
</a>
</g>
</g>
<!-- Node10&#45;&gt;Node3 -->
<g id="edge14_Node000010_Node000003" class="edge">
<title>Node10&#45;&gt;Node3</title>
<g id="a_edge14_Node000010_Node000003"><a xlink:title=" ">
<path fill="none" stroke="#63b8ff" d="M175.87,-175.75C174.95,-168.8 173.64,-158.85 172.49,-150.13"/>
<polygon fill="#63b8ff" stroke="#63b8ff" points="175.94,-149.54 171.16,-140.09 169,-150.46 175.94,-149.54"/>
</a>
</g>
</g>
<!-- Node10&#45;&gt;Node4 -->
<g id="edge13_Node000010_Node000004" class="edge">
<title>Node10&#45;&gt;Node4</title>
<g id="a_edge13_Node000010_Node000004"><a xlink:title=" ">
<path fill="none" stroke="#63b8ff" d="M125.45,-181.3C93.04,-176.67 52.5,-165.7 26.02,-140 1.74,-116.42 -7.36,-96.15 8.02,-66 16.24,-49.89 32.34,-37.77 46.92,-29.5"/>
<polygon fill="#63b8ff" stroke="#63b8ff" points="48.98,-32.37 56.19,-24.61 45.71,-26.18 48.98,-32.37"/>
</a>
</g>
</g>
<!-- Node10&#45;&gt;Node5 -->
<g id="edge12_Node000010_Node000005" class="edge">
<title>Node10&#45;&gt;Node5</title>
<g id="a_edge12_Node000010_Node000005"><a xlink:title=" ">
<path fill="none" stroke="#63b8ff" d="M186.44,-175.66C205.91,-157.38 250.84,-115.18 275.34,-92.17"/>
<polygon fill="#63b8ff" stroke="#63b8ff" points="277.91,-94.56 282.81,-85.16 273.12,-89.45 277.91,-94.56"/>
</a>
</g>
</g>
<!-- Node10&#45;&gt;Node11 -->
<g id="edge15_Node000010_Node000011" class="edge">
<title>Node10&#45;&gt;Node11</title>
<g id="a_edge15_Node000010_Node000011"><a xlink:title=" ">
<path fill="none" stroke="#63b8ff" d="M159.19,-175.98C141.41,-167.5 113.88,-154.35 93.35,-144.54"/>
<polygon fill="#63b8ff" stroke="#63b8ff" points="94.72,-141.32 84.18,-140.17 91.7,-147.64 94.72,-141.32"/>
</a>
</g>
</g>
<!-- Node11&#45;&gt;Node4 -->
<g id="edge16_Node000011_Node000004" class="edge">
<title>Node11&#45;&gt;Node4</title>
<g id="a_edge16_Node000011_Node000004"><a xlink:title=" ">
<path fill="none" stroke="#63b8ff" d="M49.79,-120.8C30.82,-109.39 3.3,-88.2 14.02,-66 21.53,-50.47 36.45,-38.29 49.89,-29.84"/>
<polygon fill="#63b8ff" stroke="#63b8ff" points="51.99,-32.66 58.85,-24.59 48.45,-26.62 51.99,-32.66"/>
</a>
</g>
</g>
<!-- Node11&#45;&gt;Node8 -->
<g id="edge17_Node000011_Node000008" class="edge">
<title>Node11&#45;&gt;Node8</title>
<g id="a_edge17_Node000011_Node000008"><a xlink:title=" ">
<path fill="none" stroke="#63b8ff" d="M67.84,-120.75C69.28,-113.8 71.35,-103.85 73.16,-95.13"/>
<polygon fill="#63b8ff" stroke="#63b8ff" points="76.64,-95.59 75.24,-85.09 69.78,-94.17 76.64,-95.59"/>
</a>
</g>
</g>
</g>
</svg>
