<?xml version="1.0" encoding="UTF-8" standalone="no"?>
<!DOCTYPE svg PUBLIC "-//W3C//DTD SVG 1.1//EN"
 "http://www.w3.org/Graphics/SVG/1.1/DTD/svg11.dtd">
<!-- Generated by graphviz version 2.43.0 (0)
 -->
<!-- Title: src/debug/crash_screen_enhancement.c Pages: 1 -->
<svg width="559pt" height="214pt"
 viewBox="0.00 0.00 558.50 214.00" xmlns="http://www.w3.org/2000/svg" xmlns:xlink="http://www.w3.org/1999/xlink">
<g id="graph0" class="graph" transform="scale(1 1) rotate(0) translate(4 210)">
<title>src/debug/crash_screen_enhancement.c</title>
<!-- Node1 -->
<g id="Node000001" class="node">
<title>Node1</title>
<g id="a_Node000001"><a xlink:title=" ">
<polygon fill="#999999" stroke="#666666" points="408,-206 277,-206 277,-176 408,-176 408,-206"/>
<text text-anchor="start" x="285" y="-194" font-family="Helvetica,sans-Serif" font-size="10.00">src/debug/crash_screen</text>
<text text-anchor="middle" x="342.5" y="-183" font-family="Helvetica,sans-Serif" font-size="10.00">_enhancement.c</text>
</a>
</g>
</g>
<!-- Node2 -->
<g id="Node000002" class="node">
<title>Node2</title>
<g id="a_Node000002"><a xlink:title=" ">
<polygon fill="#e0e0e0" stroke="#999999" points="305.5,-24.5 225.5,-24.5 225.5,-5.5 305.5,-5.5 305.5,-24.5"/>
<text text-anchor="middle" x="265.5" y="-12.5" font-family="Helvetica,sans-Serif" font-size="10.00">libultraship.h</text>
</a>
</g>
</g>
<!-- Node1&#45;&gt;Node2 -->
<g id="edge1_Node000001_Node000002" class="edge">
<title>Node1&#45;&gt;Node2</title>
<g id="a_edge1_Node000001_Node000002"><a xlink:title=" ">
<path fill="none" stroke="#63b8ff" d="M339.65,-175.94C336.54,-161.76 331,-139.41 323.5,-121 310.28,-88.53 289.37,-53.36 276.59,-33.08"/>
<polygon fill="#63b8ff" stroke="#63b8ff" points="279.53,-31.18 271.2,-24.64 273.63,-34.95 279.53,-31.18"/>
</a>
</g>
</g>
<!-- Node3 -->
<g id="Node000003" class="node">
<title>Node3</title>
<g id="a_Node000003"><a xlink:href="macros_8h.html" target="_top" xlink:title=" ">
<polygon fill="white" stroke="#666666" points="173.5,-85 111.5,-85 111.5,-66 173.5,-66 173.5,-85"/>
<text text-anchor="middle" x="142.5" y="-73" font-family="Helvetica,sans-Serif" font-size="10.00">macros.h</text>
</a>
</g>
</g>
<!-- Node1&#45;&gt;Node3 -->
<g id="edge2_Node000001_Node000003" class="edge">
<title>Node1&#45;&gt;Node3</title>
<g id="a_edge2_Node000001_Node000003"><a xlink:title=" ">
<path fill="none" stroke="#63b8ff" d="M276.94,-189.21C194.22,-186.65 58.92,-176.79 27.5,-140 2.75,-111.02 59.31,-92.81 101.58,-83.67"/>
<polygon fill="#63b8ff" stroke="#63b8ff" points="102.33,-87.09 111.42,-81.64 100.92,-80.23 102.33,-87.09"/>
</a>
</g>
</g>
<!-- Node6 -->
<g id="Node000006" class="node">
<title>Node6</title>
<g id="a_Node000006"><a xlink:href="mk64_8h.html" target="_top" xlink:title=" ">
<polygon fill="white" stroke="#666666" points="424,-140 371,-140 371,-121 424,-121 424,-140"/>
<text text-anchor="middle" x="397.5" y="-128" font-family="Helvetica,sans-Serif" font-size="10.00">mk64.h</text>
</a>
</g>
</g>
<!-- Node1&#45;&gt;Node6 -->
<g id="edge6_Node000001_Node000006" class="edge">
<title>Node1&#45;&gt;Node6</title>
<g id="a_edge6_Node000001_Node000006"><a xlink:title=" ">
<path fill="none" stroke="#63b8ff" d="M355.81,-175.84C363.8,-167.35 373.98,-156.52 382.28,-147.69"/>
<polygon fill="#63b8ff" stroke="#63b8ff" points="384.96,-149.95 389.26,-140.27 379.86,-145.15 384.96,-149.95"/>
</a>
</g>
</g>
<!-- Node7 -->
<g id="Node000007" class="node">
<title>Node7</title>
<g id="a_Node000007"><a xlink:href="string_8h.html" target="_top" xlink:title=" ">
<polygon fill="white" stroke="#666666" points="532,-85 479,-85 479,-66 532,-66 532,-85"/>
<text text-anchor="middle" x="505.5" y="-73" font-family="Helvetica,sans-Serif" font-size="10.00">string.h</text>
</a>
</g>
</g>
<!-- Node1&#45;&gt;Node7 -->
<g id="edge12_Node000001_Node000007" class="edge">
<title>Node1&#45;&gt;Node7</title>
<g id="a_edge12_Node000001_Node000007"><a xlink:title=" ">
<path fill="none" stroke="#63b8ff" d="M371.38,-175.92C389.5,-166.61 413.04,-153.65 432.5,-140 453.19,-125.49 474.78,-106.1 489.06,-92.58"/>
<polygon fill="#63b8ff" stroke="#63b8ff" points="491.77,-94.83 496.56,-85.38 486.93,-89.78 491.77,-94.83"/>
</a>
</g>
</g>
<!-- Node10 -->
<g id="Node000010" class="node">
<title>Node10</title>
<g id="a_Node000010"><a xlink:href="stdarg_8h.html" target="_top" xlink:title=" ">
<polygon fill="white" stroke="#666666" points="536.5,-140 480.5,-140 480.5,-121 536.5,-121 536.5,-140"/>
<text text-anchor="middle" x="508.5" y="-128" font-family="Helvetica,sans-Serif" font-size="10.00">stdarg.h</text>
</a>
</g>
</g>
<!-- Node1&#45;&gt;Node10 -->
<g id="edge11_Node000001_Node000010" class="edge">
<title>Node1&#45;&gt;Node10</title>
<g id="a_edge11_Node000001_Node000010"><a xlink:title=" ">
<path fill="none" stroke="#63b8ff" d="M382.26,-175.99C410.33,-166.1 447.55,-152.98 474.29,-143.56"/>
<polygon fill="#63b8ff" stroke="#63b8ff" points="475.72,-146.76 483.99,-140.14 473.39,-140.16 475.72,-146.76"/>
</a>
</g>
</g>
<!-- Node11 -->
<g id="Node000011" class="node">
<title>Node11</title>
<g id="a_Node000011"><a xlink:href="crash__screen_8h.html" target="_top" xlink:title=" ">
<polygon fill="white" stroke="#666666" points="314.5,-140 216.5,-140 216.5,-121 314.5,-121 314.5,-140"/>
<text text-anchor="middle" x="265.5" y="-128" font-family="Helvetica,sans-Serif" font-size="10.00">../crash_screen.h</text>
</a>
</g>
</g>
<!-- Node1&#45;&gt;Node11 -->
<g id="edge13_Node000001_Node000011" class="edge">
<title>Node1&#45;&gt;Node11</title>
<g id="a_edge13_Node000001_Node000011"><a xlink:title=" ">
<path fill="none" stroke="#63b8ff" d="M323.86,-175.84C312.11,-166.91 296.97,-155.41 285.05,-146.35"/>
<polygon fill="#63b8ff" stroke="#63b8ff" points="287.12,-143.53 277.04,-140.27 282.88,-149.1 287.12,-143.53"/>
</a>
</g>
</g>
<!-- Node12 -->
<g id="Node000012" class="node">
<title>Node12</title>
<g id="a_Node000012"><a xlink:href="crash__screen__enhancement_8h.html" target="_top" xlink:title=" ">
<polygon fill="white" stroke="#666666" points="198,-140 37,-140 37,-121 198,-121 198,-140"/>
<text text-anchor="middle" x="117.5" y="-128" font-family="Helvetica,sans-Serif" font-size="10.00">crash_screen_enhancement.h</text>
</a>
</g>
</g>
<!-- Node1&#45;&gt;Node12 -->
<g id="edge16_Node000001_Node000012" class="edge">
<title>Node1&#45;&gt;Node12</title>
<g id="a_edge16_Node000001_Node000012"><a xlink:title=" ">
<path fill="none" stroke="#63b8ff" d="M288.61,-175.99C249.27,-165.76 196.68,-152.09 160.23,-142.61"/>
<polygon fill="#63b8ff" stroke="#63b8ff" points="160.96,-139.18 150.4,-140.05 159.2,-145.96 160.96,-139.18"/>
</a>
</g>
</g>
<!-- Node3&#45;&gt;Node2 -->
<g id="edge4_Node000003_Node000002" class="edge">
<title>Node3&#45;&gt;Node2</title>
<g id="a_edge4_Node000003_Node000002"><a xlink:title=" ">
<path fill="none" stroke="#63b8ff" d="M160.39,-65.99C180.88,-56.25 214.69,-40.16 238.42,-28.88"/>
<polygon fill="#63b8ff" stroke="#63b8ff" points="240.07,-31.97 247.59,-24.52 237.06,-25.65 240.07,-31.97"/>
</a>
</g>
</g>
<!-- Node4 -->
<g id="Node000004" class="node">
<title>Node4</title>
<g id="a_Node000004"><a xlink:href="math_8h.html" target="_top" xlink:title=" ">
<polygon fill="white" stroke="#666666" points="188,-24.5 137,-24.5 137,-5.5 188,-5.5 188,-24.5"/>
<text text-anchor="middle" x="162.5" y="-12.5" font-family="Helvetica,sans-Serif" font-size="10.00">math.h</text>
</a>
</g>
</g>
<!-- Node3&#45;&gt;Node4 -->
<g id="edge3_Node000003_Node000004" class="edge">
<title>Node3&#45;&gt;Node4</title>
<g id="a_edge3_Node000003_Node000004"><a xlink:title=" ">
<path fill="none" stroke="#63b8ff" d="M145.45,-65.87C148.29,-57.57 152.66,-44.78 156.27,-34.22"/>
<polygon fill="#63b8ff" stroke="#63b8ff" points="159.61,-35.26 159.54,-24.67 152.99,-33 159.61,-35.26"/>
</a>
</g>
</g>
<!-- Node5 -->
<g id="Node000005" class="node">
<title>Node5</title>
<g id="a_Node000005"><a xlink:title=" ">
<polygon fill="#e0e0e0" stroke="#999999" points="119,-30 0,-30 0,0 119,0 119,-30"/>
<text text-anchor="start" x="8" y="-18" font-family="Helvetica,sans-Serif" font-size="10.00">ship/utils/binarytools</text>
<text text-anchor="middle" x="59.5" y="-7" font-family="Helvetica,sans-Serif" font-size="10.00">/endianness.h</text>
</a>
</g>
</g>
<!-- Node3&#45;&gt;Node5 -->
<g id="edge5_Node000003_Node000005" class="edge">
<title>Node3&#45;&gt;Node5</title>
<g id="a_edge5_Node000003_Node000005"><a xlink:title=" ">
<path fill="none" stroke="#63b8ff" d="M130.25,-65.87C119.1,-58 102.2,-46.09 87.71,-35.89"/>
<polygon fill="#63b8ff" stroke="#63b8ff" points="89.72,-33.01 79.53,-30.11 85.68,-38.74 89.72,-33.01"/>
</a>
</g>
</g>
<!-- Node6&#45;&gt;Node2 -->
<g id="edge7_Node000006_Node000002" class="edge">
<title>Node6&#45;&gt;Node2</title>
<g id="a_edge7_Node000006_Node000002"><a xlink:title=" ">
<path fill="none" stroke="#63b8ff" d="M408.26,-120.81C422.66,-108.12 444.93,-84.07 431.5,-66 405.05,-30.41 354.06,-19.22 315.54,-16.14"/>
<polygon fill="#63b8ff" stroke="#63b8ff" points="315.74,-12.65 305.54,-15.5 315.29,-19.63 315.74,-12.65"/>
</a>
</g>
</g>
<!-- Node6&#45;&gt;Node7 -->
<g id="edge8_Node000006_Node000007" class="edge">
<title>Node6&#45;&gt;Node7</title>
<g id="a_edge8_Node000006_Node000007"><a xlink:title=" ">
<path fill="none" stroke="#63b8ff" d="M414.85,-120.98C432.07,-112.54 458.7,-99.47 478.65,-89.68"/>
<polygon fill="#63b8ff" stroke="#63b8ff" points="480.4,-92.72 487.83,-85.17 477.31,-86.43 480.4,-92.72"/>
</a>
</g>
</g>
<!-- Node9 -->
<g id="Node000009" class="node">
<title>Node9</title>
<g id="a_Node000009"><a xlink:title=" ">
<polygon fill="#e0e0e0" stroke="#999999" points="422.5,-85 344.5,-85 344.5,-66 422.5,-66 422.5,-85"/>
<text text-anchor="middle" x="383.5" y="-73" font-family="Helvetica,sans-Serif" font-size="10.00">libultra/gbi.h</text>
</a>
</g>
</g>
<!-- Node6&#45;&gt;Node9 -->
<g id="edge10_Node000006_Node000009" class="edge">
<title>Node6&#45;&gt;Node9</title>
<g id="a_edge10_Node000006_Node000009"><a xlink:title=" ">
<path fill="none" stroke="#63b8ff" d="M395.19,-120.75C393.33,-113.72 390.66,-103.62 388.35,-94.84"/>
<polygon fill="#63b8ff" stroke="#63b8ff" points="391.71,-93.86 385.77,-85.09 384.94,-95.65 391.71,-93.86"/>
</a>
</g>
</g>
<!-- Node8 -->
<g id="Node000008" class="node">
<title>Node8</title>
<g id="a_Node000008"><a xlink:title=" ">
<polygon fill="#e0e0e0" stroke="#999999" points="550.5,-24.5 460.5,-24.5 460.5,-5.5 550.5,-5.5 550.5,-24.5"/>
<text text-anchor="middle" x="505.5" y="-12.5" font-family="Helvetica,sans-Serif" font-size="10.00">libultra/types.h</text>
</a>
</g>
</g>
<!-- Node7&#45;&gt;Node8 -->
<g id="edge9_Node000007_Node000008" class="edge">
<title>Node7&#45;&gt;Node8</title>
<g id="a_edge9_Node000007_Node000008"><a xlink:title=" ">
<path fill="none" stroke="#63b8ff" d="M505.5,-65.87C505.5,-57.75 505.5,-45.31 505.5,-34.89"/>
<polygon fill="#63b8ff" stroke="#63b8ff" points="509,-34.67 505.5,-24.67 502,-34.67 509,-34.67"/>
</a>
</g>
</g>
<!-- Node11&#45;&gt;Node2 -->
<g id="edge14_Node000011_Node000002" class="edge">
<title>Node11&#45;&gt;Node2</title>
<g id="a_edge14_Node000011_Node000002"><a xlink:title=" ">
<path fill="none" stroke="#63b8ff" d="M265.5,-120.97C265.5,-102.73 265.5,-59.57 265.5,-34.64"/>
<polygon fill="#63b8ff" stroke="#63b8ff" points="269,-34.63 265.5,-24.63 262,-34.63 269,-34.63"/>
</a>
</g>
</g>
<!-- Node11&#45;&gt;Node3 -->
<g id="edge15_Node000011_Node000003" class="edge">
<title>Node11&#45;&gt;Node3</title>
<g id="a_edge15_Node000011_Node000003"><a xlink:title=" ">
<path fill="none" stroke="#63b8ff" d="M245.74,-120.98C225.77,-112.38 194.7,-98.99 171.85,-89.15"/>
<polygon fill="#63b8ff" stroke="#63b8ff" points="173.19,-85.91 162.62,-85.17 170.42,-92.34 173.19,-85.91"/>
</a>
</g>
</g>
<!-- Node12&#45;&gt;Node2 -->
<g id="edge17_Node000012_Node000002" class="edge">
<title>Node12&#45;&gt;Node2</title>
<g id="a_edge17_Node000012_Node000002"><a xlink:title=" ">
<path fill="none" stroke="#63b8ff" d="M130.7,-120.98C144.01,-112.27 165.04,-98.19 182.5,-85 205.8,-67.4 231.49,-45.66 248.03,-31.34"/>
<polygon fill="#63b8ff" stroke="#63b8ff" points="250.53,-33.8 255.78,-24.59 245.94,-28.52 250.53,-33.8"/>
</a>
</g>
</g>
<!-- Node12&#45;&gt;Node3 -->
<g id="edge18_Node000012_Node000003" class="edge">
<title>Node12&#45;&gt;Node3</title>
<g id="a_edge18_Node000012_Node000003"><a xlink:title=" ">
<path fill="none" stroke="#63b8ff" d="M121.63,-120.75C125.01,-113.57 129.92,-103.18 134.12,-94.27"/>
<polygon fill="#63b8ff" stroke="#63b8ff" points="137.35,-95.63 138.45,-85.09 131.02,-92.64 137.35,-95.63"/>
</a>
</g>
</g>
</g>
</svg>
