<?xml version="1.0" encoding="UTF-8" standalone="no"?>
<!DOCTYPE svg PUBLIC "-//W3C//DTD SVG 1.1//EN"
 "http://www.w3.org/Graphics/SVG/1.1/DTD/svg11.dtd">
<!-- Generated by graphviz version 2.43.0 (0)
 -->
<!-- Title: src/os/guOrthoF.c Pages: 1 -->
<svg width="387pt" height="214pt"
 viewBox="0.00 0.00 387.00 214.00" xmlns="http://www.w3.org/2000/svg" xmlns:xlink="http://www.w3.org/1999/xlink">

<svg id="main" version="1.1" xmlns="http://www.w3.org/2000/svg" xmlns:xlink="http://www.w3.org/1999/xlink" xml:space="preserve">

<style type="text/css"><![CDATA[
.node, .edge {opacity: 0.7;}
.node.selected, .edge.selected {opacity: 1;}
.edge:hover path { stroke: red; }
.edge:hover polygon { stroke: red; fill: red; }
]]></style>
<script type="application/ecmascript" xlink:href="svg.min.js"/>
<svg id="graph" class="graph">
<g id="graph0" class="graph" transform="scale(1 1) rotate(0) translate(4 210)">
<title>src/os/guOrthoF.c</title>
<!-- Node1 -->
<g id="Node000001" class="node">
<title>Node1</title>
<g id="a_Node000001"><a xlink:title=" ">
<polygon fill="#999999" stroke="#666666" points="277.5,-206 177.5,-206 177.5,-187 277.5,-187 277.5,-206"/>
<text text-anchor="middle" x="227.5" y="-194" font-family="Helvetica,sans-Serif" font-size="10.00">src/os/guOrthoF.c</text>
</a>
</g>
</g>
<!-- Node2 -->
<g id="Node000002" class="node">
<title>Node2</title>
<g id="a_Node000002"><a xlink:href="libultra__internal_8h.html" target="_top" xlink:title=" ">
<polygon fill="white" stroke="#666666" points="214,-145.5 111,-145.5 111,-126.5 214,-126.5 214,-145.5"/>
<text text-anchor="middle" x="162.5" y="-133.5" font-family="Helvetica,sans-Serif" font-size="10.00">libultra_internal.h</text>
</a>
</g>
</g>
<!-- Node1&#45;&gt;Node2 -->
<g id="edge1_Node000001_Node000002" class="edge">
<title>Node1&#45;&gt;Node2</title>
<g id="a_edge1_Node000001_Node000002"><a xlink:title=" ">
<path fill="none" stroke="#63b8ff" d="M217.91,-186.87C207.92,-177.88 192.07,-163.61 179.87,-152.64"/>
<polygon fill="#63b8ff" stroke="#63b8ff" points="181.9,-149.76 172.13,-145.67 177.22,-154.96 181.9,-149.76"/>
</a>
</g>
</g>
<!-- Node7 -->
<g id="Node000007" class="node">
<title>Node7</title>
<g id="a_Node000007"><a xlink:href="FrameInterpolation_8h.html" target="_top" xlink:title=" ">
<polygon fill="white" stroke="#666666" points="354.5,-151 232.5,-151 232.5,-121 354.5,-121 354.5,-151"/>
<text text-anchor="start" x="240.5" y="-139" font-family="Helvetica,sans-Serif" font-size="10.00">port/interpolation</text>
<text text-anchor="middle" x="293.5" y="-128" font-family="Helvetica,sans-Serif" font-size="10.00">/FrameInterpolation.h</text>
</a>
</g>
</g>
<!-- Node1&#45;&gt;Node7 -->
<g id="edge7_Node000001_Node000007" class="edge">
<title>Node1&#45;&gt;Node7</title>
<g id="a_edge7_Node000001_Node000007"><a xlink:title=" ">
<path fill="none" stroke="#63b8ff" d="M237.24,-186.87C245.86,-179.22 258.8,-167.76 270.09,-157.75"/>
<polygon fill="#63b8ff" stroke="#63b8ff" points="272.41,-160.37 277.58,-151.11 267.77,-155.13 272.41,-160.37"/>
</a>
</g>
</g>
<!-- Node3 -->
<g id="Node000003" class="node">
<title>Node3</title>
<g id="a_Node000003"><a xlink:title=" ">
<polygon fill="#e0e0e0" stroke="#999999" points="286.5,-24.5 206.5,-24.5 206.5,-5.5 286.5,-5.5 286.5,-24.5"/>
<text text-anchor="middle" x="246.5" y="-12.5" font-family="Helvetica,sans-Serif" font-size="10.00">libultraship.h</text>
</a>
</g>
</g>
<!-- Node2&#45;&gt;Node3 -->
<g id="edge2_Node000002_Node000003" class="edge">
<title>Node2&#45;&gt;Node3</title>
<g id="a_edge2_Node000002_Node000003"><a xlink:title=" ">
<path fill="none" stroke="#63b8ff" d="M168.54,-126.44C182.28,-106.98 216.07,-59.1 234.33,-33.24"/>
<polygon fill="#63b8ff" stroke="#63b8ff" points="237.38,-34.99 240.29,-24.8 231.66,-30.95 237.38,-34.99"/>
</a>
</g>
</g>
<!-- Node4 -->
<g id="Node000004" class="node">
<title>Node4</title>
<g id="a_Node000004"><a xlink:href="macros_8h.html" target="_top" xlink:title=" ">
<polygon fill="white" stroke="#666666" points="169.5,-85 107.5,-85 107.5,-66 169.5,-66 169.5,-85"/>
<text text-anchor="middle" x="138.5" y="-73" font-family="Helvetica,sans-Serif" font-size="10.00">macros.h</text>
</a>
</g>
</g>
<!-- Node2&#45;&gt;Node4 -->
<g id="edge3_Node000002_Node000004" class="edge">
<title>Node2&#45;&gt;Node4</title>
<g id="a_edge3_Node000002_Node000004"><a xlink:title=" ">
<path fill="none" stroke="#63b8ff" d="M158.96,-126.37C155.56,-118.07 150.31,-105.28 145.98,-94.72"/>
<polygon fill="#63b8ff" stroke="#63b8ff" points="149.09,-93.09 142.06,-85.17 142.61,-95.75 149.09,-93.09"/>
</a>
</g>
</g>
<!-- Node4&#45;&gt;Node3 -->
<g id="edge5_Node000004_Node000003" class="edge">
<title>Node4&#45;&gt;Node3</title>
<g id="a_edge5_Node000004_Node000003"><a xlink:title=" ">
<path fill="none" stroke="#63b8ff" d="M154.44,-65.87C172.14,-56.28 200.96,-40.67 221.64,-29.47"/>
<polygon fill="#63b8ff" stroke="#63b8ff" points="223.37,-32.51 230.5,-24.67 220.04,-26.35 223.37,-32.51"/>
</a>
</g>
</g>
<!-- Node5 -->
<g id="Node000005" class="node">
<title>Node5</title>
<g id="a_Node000005"><a xlink:href="math_8h.html" target="_top" xlink:title=" ">
<polygon fill="white" stroke="#666666" points="51,-24.5 0,-24.5 0,-5.5 51,-5.5 51,-24.5"/>
<text text-anchor="middle" x="25.5" y="-12.5" font-family="Helvetica,sans-Serif" font-size="10.00">math.h</text>
</a>
</g>
</g>
<!-- Node4&#45;&gt;Node5 -->
<g id="edge4_Node000004_Node000005" class="edge">
<title>Node4&#45;&gt;Node5</title>
<g id="a_edge4_Node000004_Node000005"><a xlink:title=" ">
<path fill="none" stroke="#63b8ff" d="M121.83,-65.87C103.22,-56.23 72.88,-40.53 51.22,-29.31"/>
<polygon fill="#63b8ff" stroke="#63b8ff" points="52.73,-26.16 42.24,-24.67 49.51,-32.37 52.73,-26.16"/>
</a>
</g>
</g>
<!-- Node6 -->
<g id="Node000006" class="node">
<title>Node6</title>
<g id="a_Node000006"><a xlink:title=" ">
<polygon fill="#e0e0e0" stroke="#999999" points="188,-30 69,-30 69,0 188,0 188,-30"/>
<text text-anchor="start" x="77" y="-18" font-family="Helvetica,sans-Serif" font-size="10.00">ship/utils/binarytools</text>
<text text-anchor="middle" x="128.5" y="-7" font-family="Helvetica,sans-Serif" font-size="10.00">/endianness.h</text>
</a>
</g>
</g>
<!-- Node4&#45;&gt;Node6 -->
<g id="edge6_Node000004_Node000006" class="edge">
<title>Node4&#45;&gt;Node6</title>
<g id="a_edge6_Node000004_Node000006"><a xlink:title=" ">
<path fill="none" stroke="#63b8ff" d="M137.02,-65.87C135.87,-59.11 134.2,-49.35 132.65,-40.26"/>
<polygon fill="#63b8ff" stroke="#63b8ff" points="136.05,-39.38 130.91,-30.11 129.15,-40.56 136.05,-39.38"/>
</a>
</g>
</g>
<!-- Node7&#45;&gt;Node3 -->
<g id="edge8_Node000007_Node000003" class="edge">
<title>Node7&#45;&gt;Node3</title>
<g id="a_edge8_Node000007_Node000003"><a xlink:title=" ">
<path fill="none" stroke="#63b8ff" d="M283.36,-120.73C276.89,-111.04 268.75,-97.73 263.5,-85 256.75,-68.62 252.22,-48.9 249.55,-34.75"/>
<polygon fill="#63b8ff" stroke="#63b8ff" points="252.97,-34 247.8,-24.76 246.08,-35.21 252.97,-34"/>
</a>
</g>
</g>
<!-- Node8 -->
<g id="Node000008" class="node">
<title>Node8</title>
<g id="a_Node000008"><a xlink:href="common__structs_8h.html" target="_top" xlink:title=" ">
<polygon fill="white" stroke="#666666" points="379,-85 272,-85 272,-66 379,-66 379,-85"/>
<text text-anchor="middle" x="325.5" y="-73" font-family="Helvetica,sans-Serif" font-size="10.00">common_structs.h</text>
</a>
</g>
</g>
<!-- Node7&#45;&gt;Node8 -->
<g id="edge9_Node000007_Node000008" class="edge">
<title>Node7&#45;&gt;Node8</title>
<g id="a_edge9_Node000007_Node000008"><a xlink:title=" ">
<path fill="none" stroke="#63b8ff" d="M301.25,-120.84C305.65,-112.78 311.21,-102.62 315.9,-94.06"/>
<polygon fill="#63b8ff" stroke="#63b8ff" points="318.98,-95.72 320.7,-85.27 312.84,-92.36 318.98,-95.72"/>
</a>
</g>
</g>
<!-- Node8&#45;&gt;Node3 -->
<g id="edge10_Node000008_Node000003" class="edge">
<title>Node8&#45;&gt;Node3</title>
<g id="a_edge10_Node000008_Node000003"><a xlink:title=" ">
<path fill="none" stroke="#63b8ff" d="M313.84,-65.87C301.36,-56.62 281.32,-41.78 266.34,-30.69"/>
<polygon fill="#63b8ff" stroke="#63b8ff" points="268.32,-27.81 258.2,-24.67 264.16,-33.43 268.32,-27.81"/>
</a>
</g>
</g>
</g>
</svg>
</svg>

<style type='text/css'>
<![CDATA[
[data-mouse-over-selected='false'] { opacity: 0.7; }
[data-mouse-over-selected='true']  { opacity: 1.0; }
]]>
</style>
<script type="application/ecmascript"><![CDATA[
document.addEventListener('DOMContentLoaded', (event) => {
  highlightEdges();
  highlightAdjacentNodes();
});
]]></script>
</svg>
