<?xml version="1.0" encoding="UTF-8" standalone="no"?>
<!DOCTYPE svg PUBLIC "-//W3C//DTD SVG 1.1//EN"
 "http://www.w3.org/Graphics/SVG/1.1/DTD/svg11.dtd">
<!-- Generated by graphviz version 2.43.0 (0)
 -->
<!-- Title: func_8009BC9C Pages: 1 -->
<svg width="527pt" height="212pt"
 viewBox="0.00 0.00 527.00 212.00" xmlns="http://www.w3.org/2000/svg" xmlns:xlink="http://www.w3.org/1999/xlink">
<g id="graph0" class="graph" transform="scale(1 1) rotate(0) translate(4 208)">
<title>func_8009BC9C</title>
<!-- Node1 -->
<g id="Node000001" class="node">
<title>Node1</title>
<g id="a_Node000001"><a xlink:title=" ">
<polygon fill="#999999" stroke="#666666" points="93,-111 0,-111 0,-92 93,-92 93,-111"/>
<text text-anchor="middle" x="46.5" y="-99" font-family="Helvetica,sans-Serif" font-size="10.00">func_8009BC9C</text>
</a>
</g>
</g>
<!-- Node2 -->
<g id="Node000002" class="node">
<title>Node2</title>
<g id="a_Node000002"><a xlink:href="menu__items_8c.html#ab35753d4ab3ac5e7ba56e699aa01f05c" target="_top" xlink:title=" ">
<polygon fill="white" stroke="#666666" points="220.5,-204 129.5,-204 129.5,-185 220.5,-185 220.5,-204"/>
<text text-anchor="middle" x="175" y="-192" font-family="Helvetica,sans-Serif" font-size="10.00">func_80097274</text>
</a>
</g>
</g>
<!-- Node1&#45;&gt;Node2 -->
<g id="edge1_Node000001_Node000002" class="edge">
<title>Node1&#45;&gt;Node2</title>
<g id="a_edge1_Node000001_Node000002"><a xlink:title=" ">
<path fill="none" stroke="#63b8ff" d="M56.11,-111.49C70.06,-127.15 99.06,-157.64 129,-176.5 131.32,-177.96 133.78,-179.35 136.31,-180.64"/>
<polygon fill="#63b8ff" stroke="#63b8ff" points="135.08,-183.93 145.62,-184.98 138.03,-177.58 135.08,-183.93"/>
</a>
</g>
</g>
<!-- Node5 -->
<g id="Node000005" class="node">
<title>Node5</title>
<g id="a_Node000005"><a xlink:href="menu__items_8c.html#a6aa04c603cd7b877a5009a97a0b41ed3" target="_top" xlink:title=" ">
<polygon fill="white" stroke="#666666" points="221,-167 129,-167 129,-148 221,-148 221,-167"/>
<text text-anchor="middle" x="175" y="-155" font-family="Helvetica,sans-Serif" font-size="10.00">func_80097A14</text>
</a>
</g>
</g>
<!-- Node1&#45;&gt;Node5 -->
<g id="edge4_Node000001_Node000005" class="edge">
<title>Node1&#45;&gt;Node5</title>
<g id="a_edge4_Node000001_Node000005"><a xlink:title=" ">
<path fill="none" stroke="#63b8ff" d="M67.12,-111.02C83.55,-118.9 107.65,-130.26 129,-139.5 132.45,-140.99 136.06,-142.51 139.67,-144"/>
<polygon fill="#63b8ff" stroke="#63b8ff" points="138.56,-147.32 149.14,-147.84 141.19,-140.84 138.56,-147.32"/>
</a>
</g>
</g>
<!-- Node7 -->
<g id="Node000007" class="node">
<title>Node7</title>
<g id="a_Node000007"><a xlink:href="menu__items_8c.html#aeb1b8324b9920cfe271a1d5cc64797f4" target="_top" xlink:title=" ">
<polygon fill="white" stroke="#666666" points="221,-130 129,-130 129,-111 221,-111 221,-130"/>
<text text-anchor="middle" x="175" y="-118" font-family="Helvetica,sans-Serif" font-size="10.00">func_80097AE4</text>
</a>
</g>
</g>
<!-- Node1&#45;&gt;Node7 -->
<g id="edge6_Node000001_Node000007" class="edge">
<title>Node1&#45;&gt;Node7</title>
<g id="a_edge6_Node000001_Node000007"><a xlink:title=" ">
<path fill="none" stroke="#63b8ff" d="M93.17,-108.36C101.51,-109.61 110.3,-110.93 118.88,-112.22"/>
<polygon fill="#63b8ff" stroke="#63b8ff" points="118.41,-115.69 128.82,-113.71 119.45,-108.77 118.41,-115.69"/>
</a>
</g>
</g>
<!-- Node8 -->
<g id="Node000008" class="node">
<title>Node8</title>
<g id="a_Node000008"><a xlink:href="menu__items_8c.html#adb77bd165b93d5a5e986b694ae35665c" target="_top" xlink:title=" ">
<polygon fill="white" stroke="#666666" points="220.5,-93 129.5,-93 129.5,-74 220.5,-74 220.5,-93"/>
<text text-anchor="middle" x="175" y="-81" font-family="Helvetica,sans-Serif" font-size="10.00">func_80097E58</text>
</a>
</g>
</g>
<!-- Node1&#45;&gt;Node8 -->
<g id="edge7_Node000001_Node000008" class="edge">
<title>Node1&#45;&gt;Node8</title>
<g id="a_edge7_Node000001_Node000008"><a xlink:title=" ">
<path fill="none" stroke="#63b8ff" d="M93.17,-95C101.61,-93.8 110.51,-92.53 119.19,-91.3"/>
<polygon fill="#63b8ff" stroke="#63b8ff" points="119.84,-94.74 129.25,-89.87 118.85,-87.81 119.84,-94.74"/>
</a>
</g>
</g>
<!-- Node9 -->
<g id="Node000009" class="node">
<title>Node9</title>
<g id="a_Node000009"><a xlink:href="menu__items_8c.html#a6061a0dbb9b34a45fb1620c6c1d7f73c" target="_top" xlink:title=" ">
<polygon fill="white" stroke="#666666" points="221,-56 129,-56 129,-37 221,-37 221,-56"/>
<text text-anchor="middle" x="175" y="-44" font-family="Helvetica,sans-Serif" font-size="10.00">func_8009B8C4</text>
</a>
</g>
</g>
<!-- Node1&#45;&gt;Node9 -->
<g id="edge8_Node000001_Node000009" class="edge">
<title>Node1&#45;&gt;Node9</title>
<g id="a_edge8_Node000001_Node000009"><a xlink:title=" ">
<path fill="none" stroke="#63b8ff" d="M68.91,-91.93C85.32,-84.62 108.55,-74.33 129,-65.5 133.14,-63.71 137.5,-61.85 141.82,-60.01"/>
<polygon fill="#63b8ff" stroke="#63b8ff" points="143.23,-63.21 151.08,-56.09 140.5,-56.77 143.23,-63.21"/>
</a>
</g>
</g>
<!-- Node10 -->
<g id="Node000010" class="node">
<title>Node10</title>
<g id="a_Node000010"><a xlink:href="GBIMiddleware_8cpp.html#a4ecc44e3c6f1ca5a6b4a20c41d3bd2d2" target="_top" xlink:title=" ">
<polygon fill="white" stroke="#666666" points="219.5,-19 130.5,-19 130.5,0 219.5,0 219.5,-19"/>
<text text-anchor="middle" x="175" y="-7" font-family="Helvetica,sans-Serif" font-size="10.00">gSPDisplayList</text>
</a>
</g>
</g>
<!-- Node1&#45;&gt;Node10 -->
<g id="edge9_Node000001_Node000010" class="edge">
<title>Node1&#45;&gt;Node10</title>
<g id="a_edge9_Node000001_Node000010"><a xlink:title=" ">
<path fill="none" stroke="#63b8ff" d="M56.21,-91.87C70.29,-76.74 99.48,-47.21 129,-28.5 131.79,-26.73 134.78,-25.06 137.84,-23.49"/>
<polygon fill="#63b8ff" stroke="#63b8ff" points="139.53,-26.57 147.09,-19.15 136.55,-20.23 139.53,-26.57"/>
</a>
</g>
</g>
<!-- Node3 -->
<g id="Node000003" class="node">
<title>Node3</title>
<g id="a_Node000003"><a xlink:href="math__util_8c.html#a151b63b8adf9af7e4054b3b84bd226dc" target="_top" xlink:title=" ">
<polygon fill="white" stroke="#666666" points="367.5,-204 295.5,-204 295.5,-185 367.5,-185 367.5,-204"/>
<text text-anchor="middle" x="331.5" y="-192" font-family="Helvetica,sans-Serif" font-size="10.00">random_int</text>
</a>
</g>
</g>
<!-- Node2&#45;&gt;Node3 -->
<g id="edge2_Node000002_Node000003" class="edge">
<title>Node2&#45;&gt;Node3</title>
<g id="a_edge2_Node000002_Node000003"><a xlink:title=" ">
<path fill="none" stroke="#63b8ff" d="M220.69,-194.5C240.88,-194.5 264.69,-194.5 284.98,-194.5"/>
<polygon fill="#63b8ff" stroke="#63b8ff" points="285.23,-198 295.23,-194.5 285.23,-191 285.23,-198"/>
</a>
</g>
</g>
<!-- Node4 -->
<g id="Node000004" class="node">
<title>Node4</title>
<g id="a_Node000004"><a xlink:href="math__util_8c.html#a062850863585005ad1d0a75d9ff70693" target="_top" xlink:title=" ">
<polygon fill="white" stroke="#666666" points="519,-204 442,-204 442,-185 519,-185 519,-204"/>
<text text-anchor="middle" x="480.5" y="-192" font-family="Helvetica,sans-Serif" font-size="10.00">random_u16</text>
</a>
</g>
</g>
<!-- Node3&#45;&gt;Node4 -->
<g id="edge3_Node000003_Node000004" class="edge">
<title>Node3&#45;&gt;Node4</title>
<g id="a_edge3_Node000003_Node000004"><a xlink:title=" ">
<path fill="none" stroke="#63b8ff" d="M367.71,-194.5C386.82,-194.5 410.72,-194.5 431.51,-194.5"/>
<polygon fill="#63b8ff" stroke="#63b8ff" points="431.75,-198 441.75,-194.5 431.75,-191 431.75,-198"/>
</a>
</g>
</g>
<!-- Node6 -->
<g id="Node000006" class="node">
<title>Node6</title>
<g id="a_Node000006"><a xlink:href="menu__items_8c.html#ab08c98f6314b278395136aa229bcc337" target="_top" xlink:title=" ">
<polygon fill="white" stroke="#666666" points="377,-167 286,-167 286,-148 377,-148 377,-167"/>
<text text-anchor="middle" x="331.5" y="-155" font-family="Helvetica,sans-Serif" font-size="10.00">func_80095E10</text>
</a>
</g>
</g>
<!-- Node5&#45;&gt;Node6 -->
<g id="edge5_Node000005_Node000006" class="edge">
<title>Node5&#45;&gt;Node6</title>
<g id="a_edge5_Node000005_Node000006"><a xlink:title=" ">
<path fill="none" stroke="#63b8ff" d="M221.1,-157.5C238.23,-157.5 257.93,-157.5 275.85,-157.5"/>
<polygon fill="#63b8ff" stroke="#63b8ff" points="275.87,-161 285.87,-157.5 275.87,-154 275.87,-161"/>
</a>
</g>
</g>
<!-- Node11 -->
<g id="Node000011" class="node">
<title>Node11</title>
<g id="a_Node000011"><a xlink:href="Engine_8cpp.html#a223c8bc63f228dc11177515e38eff2db" target="_top" xlink:title=" ">
<polygon fill="white" stroke="#666666" points="406,-19 257,-19 257,0 406,0 406,-19"/>
<text text-anchor="middle" x="331.5" y="-7" font-family="Helvetica,sans-Serif" font-size="10.00">GameEngine_OTRSigCheck</text>
</a>
</g>
</g>
<!-- Node10&#45;&gt;Node11 -->
<g id="edge10_Node000010_Node000011" class="edge">
<title>Node10&#45;&gt;Node11</title>
<g id="a_edge10_Node000010_Node000011"><a xlink:title=" ">
<path fill="none" stroke="#63b8ff" d="M219.86,-9.5C228.31,-9.5 237.42,-9.5 246.66,-9.5"/>
<polygon fill="#63b8ff" stroke="#63b8ff" points="246.71,-13 256.71,-9.5 246.71,-6 246.71,-13"/>
</a>
</g>
</g>
<!-- Node12 -->
<g id="Node000012" class="node">
<title>Node12</title>
<g id="a_Node000012"><a xlink:href="string_8c.html#a008e171a518fe0e0352f31b245e03875" target="_top" xlink:title=" ">
<polygon fill="white" stroke="#666666" points="502.5,-19 458.5,-19 458.5,0 502.5,0 502.5,-19"/>
<text text-anchor="middle" x="480.5" y="-7" font-family="Helvetica,sans-Serif" font-size="10.00">strlen</text>
</a>
</g>
</g>
<!-- Node11&#45;&gt;Node12 -->
<g id="edge11_Node000011_Node000012" class="edge">
<title>Node11&#45;&gt;Node12</title>
<g id="a_edge11_Node000011_Node000012"><a xlink:title=" ">
<path fill="none" stroke="#63b8ff" d="M406,-9.5C420.88,-9.5 435.76,-9.5 448.2,-9.5"/>
<polygon fill="#63b8ff" stroke="#63b8ff" points="448.44,-13 458.44,-9.5 448.44,-6 448.44,-13"/>
</a>
</g>
</g>
</g>
</svg>
