<?xml version="1.0" encoding="UTF-8" standalone="no"?>
<!DOCTYPE svg PUBLIC "-//W3C//DTD SVG 1.1//EN"
 "http://www.w3.org/Graphics/SVG/1.1/DTD/svg11.dtd">
<!-- Generated by graphviz version 2.43.0 (0)
 -->
<!-- Title: src/engine/actors/Tree.cpp Pages: 1 -->
<svg width="1626pt" height="423pt"
 viewBox="0.00 0.00 1625.50 423.00" xmlns="http://www.w3.org/2000/svg" xmlns:xlink="http://www.w3.org/1999/xlink">
<g id="graph0" class="graph" transform="scale(1 1) rotate(0) translate(4 419)">
<title>src/engine/actors/Tree.cpp</title>
<!-- Node1 -->
<g id="Node000001" class="node">
<title>Node1</title>
<g id="a_Node000001"><a xlink:title=" ">
<polygon fill="#999999" stroke="#666666" points="1188.5,-415 1045.5,-415 1045.5,-396 1188.5,-396 1188.5,-415"/>
<text text-anchor="middle" x="1117" y="-403" font-family="Helvetica,sans-Serif" font-size="10.00">src/engine/actors/Tree.cpp</text>
</a>
</g>
</g>
<!-- Node2 -->
<g id="Node000002" class="node">
<title>Node2</title>
<g id="a_Node000002"><a xlink:href="Tree_8h.html" target="_top" xlink:title=" ">
<polygon fill="white" stroke="#666666" points="1045,-360 999,-360 999,-341 1045,-341 1045,-360"/>
<text text-anchor="middle" x="1022" y="-348" font-family="Helvetica,sans-Serif" font-size="10.00">Tree.h</text>
</a>
</g>
</g>
<!-- Node1&#45;&gt;Node2 -->
<g id="edge1_Node000001_Node000002" class="edge">
<title>Node1&#45;&gt;Node2</title>
<g id="a_edge1_Node000001_Node000002"><a xlink:title=" ">
<path fill="none" stroke="#63b8ff" d="M1101.74,-395.98C1086.87,-387.69 1064.02,-374.94 1046.58,-365.22"/>
<polygon fill="#63b8ff" stroke="#63b8ff" points="1047.98,-361.99 1037.54,-360.17 1044.57,-368.1 1047.98,-361.99"/>
</a>
</g>
</g>
<!-- Node11 -->
<g id="Node000011" class="node">
<title>Node11</title>
<g id="a_Node000011"><a xlink:href="common__structs_8h.html" target="_top" xlink:title=" ">
<polygon fill="white" stroke="#666666" points="1139.5,-85 1032.5,-85 1032.5,-66 1139.5,-66 1139.5,-85"/>
<text text-anchor="middle" x="1086" y="-73" font-family="Helvetica,sans-Serif" font-size="10.00">common_structs.h</text>
</a>
</g>
</g>
<!-- Node1&#45;&gt;Node11 -->
<g id="edge51_Node000001_Node000011" class="edge">
<title>Node1&#45;&gt;Node11</title>
<g id="a_edge51_Node000001_Node000011"><a xlink:title=" ">
<path fill="none" stroke="#63b8ff" d="M1120.75,-395.73C1128.17,-377.56 1144,-334.38 1144,-296.5 1144,-296.5 1144,-296.5 1144,-239.5 1144,-183.88 1113.66,-123.44 1096.86,-94.26"/>
<polygon fill="#63b8ff" stroke="#63b8ff" points="1099.67,-92.12 1091.56,-85.3 1093.64,-95.68 1099.67,-92.12"/>
</a>
</g>
</g>
<!-- Node14 -->
<g id="Node000014" class="node">
<title>Node14</title>
<g id="a_Node000014"><a xlink:title=" ">
<polygon fill="#e0e0e0" stroke="#999999" points="254,-140 176,-140 176,-121 254,-121 254,-140"/>
<text text-anchor="middle" x="215" y="-128" font-family="Helvetica,sans-Serif" font-size="10.00">libultra/gbi.h</text>
</a>
</g>
</g>
<!-- Node1&#45;&gt;Node14 -->
<g id="edge50_Node000001_Node000014" class="edge">
<title>Node1&#45;&gt;Node14</title>
<g id="a_edge50_Node000001_Node000014"><a xlink:title=" ">
<path fill="none" stroke="#63b8ff" d="M1072.41,-395.94C1028.45,-387.37 959.43,-373.54 900,-360 606.03,-293.03 471.19,-390.89 242,-195 228.78,-183.7 221.87,-164.79 218.37,-150.54"/>
<polygon fill="#63b8ff" stroke="#63b8ff" points="221.71,-149.41 216.23,-140.34 214.85,-150.85 221.71,-149.41"/>
</a>
</g>
</g>
<!-- Node23 -->
<g id="Node000023" class="node">
<title>Node23</title>
<g id="a_Node000023"><a xlink:href="main_8h.html" target="_top" xlink:title=" ">
<polygon fill="white" stroke="#666666" points="573,-250 523,-250 523,-231 573,-231 573,-250"/>
<text text-anchor="middle" x="548" y="-238" font-family="Helvetica,sans-Serif" font-size="10.00">main.h</text>
</a>
</g>
</g>
<!-- Node1&#45;&gt;Node23 -->
<g id="edge55_Node000001_Node000023" class="edge">
<title>Node1&#45;&gt;Node23</title>
<g id="a_edge55_Node000001_Node000023"><a xlink:title=" ">
<path fill="none" stroke="#63b8ff" d="M1087.21,-395.97C990.61,-368.29 686.36,-281.13 582.86,-251.49"/>
<polygon fill="#63b8ff" stroke="#63b8ff" points="583.78,-248.11 573.21,-248.72 581.86,-254.84 583.78,-248.11"/>
</a>
</g>
</g>
<!-- Node27 -->
<g id="Node000027" class="node">
<title>Node27</title>
<g id="a_Node000027"><a xlink:href="math__util_8h.html" target="_top" xlink:title=" ">
<polygon fill="white" stroke="#666666" points="1239.5,-140 1134.5,-140 1134.5,-121 1239.5,-121 1239.5,-140"/>
<text text-anchor="middle" x="1187" y="-128" font-family="Helvetica,sans-Serif" font-size="10.00">racing/math_util.h</text>
</a>
</g>
</g>
<!-- Node1&#45;&gt;Node27 -->
<g id="edge52_Node000001_Node000027" class="edge">
<title>Node1&#45;&gt;Node27</title>
<g id="a_edge52_Node000001_Node000027"><a xlink:title=" ">
<path fill="none" stroke="#63b8ff" d="M1127.18,-395.83C1145.92,-378.84 1184,-339.09 1184,-296.5 1184,-296.5 1184,-296.5 1184,-239.5 1184,-208.18 1185.28,-171.77 1186.16,-150.23"/>
<polygon fill="#63b8ff" stroke="#63b8ff" points="1189.66,-150.32 1186.6,-140.18 1182.67,-150.02 1189.66,-150.32"/>
</a>
</g>
</g>
<!-- Node28 -->
<g id="Node000028" class="node">
<title>Node28</title>
<g id="a_Node000028"><a xlink:href="actors_8h.html" target="_top" xlink:title=" ">
<polygon fill="white" stroke="#666666" points="1352.5,-250 1263.5,-250 1263.5,-231 1352.5,-231 1352.5,-250"/>
<text text-anchor="middle" x="1308" y="-238" font-family="Helvetica,sans-Serif" font-size="10.00">racing/actors.h</text>
</a>
</g>
</g>
<!-- Node1&#45;&gt;Node28 -->
<g id="edge56_Node000001_Node000028" class="edge">
<title>Node1&#45;&gt;Node28</title>
<g id="a_edge56_Node000001_Node000028"><a xlink:title=" ">
<path fill="none" stroke="#63b8ff" d="M1136.72,-395.86C1153.82,-387.88 1178.77,-375 1198,-360 1238.02,-328.78 1276.37,-282.56 1295.46,-258.09"/>
<polygon fill="#63b8ff" stroke="#63b8ff" points="1298.26,-260.19 1301.59,-250.13 1292.71,-255.92 1298.26,-260.19"/>
</a>
</g>
</g>
<!-- Node3 -->
<g id="Node000003" class="node">
<title>Node3</title>
<g id="a_Node000003"><a xlink:title=" ">
<polygon fill="#e0e0e0" stroke="#999999" points="1168,-24.5 1088,-24.5 1088,-5.5 1168,-5.5 1168,-24.5"/>
<text text-anchor="middle" x="1128" y="-12.5" font-family="Helvetica,sans-Serif" font-size="10.00">libultraship.h</text>
</a>
</g>
</g>
<!-- Node2&#45;&gt;Node3 -->
<g id="edge2_Node000002_Node000003" class="edge">
<title>Node2&#45;&gt;Node3</title>
<g id="a_edge2_Node000002_Node000003"><a xlink:title=" ">
<path fill="none" stroke="#63b8ff" d="M998.73,-348.3C846.61,-340.3 0,-293.46 0,-241.5 0,-241.5 0,-241.5 0,-129.5 0,-89.43 27.32,-82.13 64,-66 157.34,-24.96 879.6,-17.52 1077.82,-16.25"/>
<polygon fill="#63b8ff" stroke="#63b8ff" points="1077.97,-19.75 1087.95,-16.19 1077.93,-12.75 1077.97,-19.75"/>
</a>
</g>
</g>
<!-- Node4 -->
<g id="Node000004" class="node">
<title>Node4</title>
<g id="a_Node000004"><a xlink:href="Actor_8h.html" target="_top" xlink:title=" ">
<polygon fill="white" stroke="#666666" points="1018,-305 932,-305 932,-286 1018,-286 1018,-305"/>
<text text-anchor="middle" x="975" y="-293" font-family="Helvetica,sans-Serif" font-size="10.00">engine/Actor.h</text>
</a>
</g>
</g>
<!-- Node2&#45;&gt;Node4 -->
<g id="edge3_Node000002_Node000004" class="edge">
<title>Node2&#45;&gt;Node4</title>
<g id="a_edge3_Node000002_Node000004"><a xlink:title=" ">
<path fill="none" stroke="#63b8ff" d="M1014.24,-340.75C1007.53,-333.18 997.66,-322.05 989.49,-312.84"/>
<polygon fill="#63b8ff" stroke="#63b8ff" points="991.87,-310.25 982.62,-305.09 986.63,-314.89 991.87,-310.25"/>
</a>
</g>
</g>
<!-- Node2&#45;&gt;Node11 -->
<g id="edge49_Node000002_Node000011" class="edge">
<title>Node2&#45;&gt;Node11</title>
<g id="a_edge49_Node000002_Node000011"><a xlink:title=" ">
<path fill="none" stroke="#63b8ff" d="M1028.59,-340.8C1041.31,-323.1 1068,-281.24 1068,-241.5 1068,-241.5 1068,-241.5 1068,-184.5 1068,-152.61 1075.73,-116.14 1081.06,-94.78"/>
<polygon fill="#63b8ff" stroke="#63b8ff" points="1084.45,-95.66 1083.57,-85.1 1077.67,-93.9 1084.45,-95.66"/>
</a>
</g>
</g>
<!-- Node4&#45;&gt;Node3 -->
<g id="edge4_Node000004_Node000003" class="edge">
<title>Node4&#45;&gt;Node3</title>
<g id="a_edge4_Node000004_Node000003"><a xlink:title=" ">
<path fill="none" stroke="#63b8ff" d="M932,-294.13C748.2,-291.97 38,-277.74 38,-186.5 38,-186.5 38,-186.5 38,-129.5 38,-78.71 84.79,-81.96 133,-66 222.94,-36.22 887.81,-20.79 1077.57,-16.96"/>
<polygon fill="#63b8ff" stroke="#63b8ff" points="1077.89,-20.46 1087.81,-16.76 1077.75,-13.46 1077.89,-20.46"/>
</a>
</g>
</g>
<!-- Node5 -->
<g id="Node000005" class="node">
<title>Node5</title>
<g id="a_Node000005"><a xlink:href="SpawnParams_8h.html" target="_top" xlink:title=" ">
<polygon fill="white" stroke="#666666" points="888,-140 758,-140 758,-121 888,-121 888,-140"/>
<text text-anchor="middle" x="823" y="-128" font-family="Helvetica,sans-Serif" font-size="10.00">engine/SpawnParams.h</text>
</a>
</g>
</g>
<!-- Node4&#45;&gt;Node5 -->
<g id="edge5_Node000004_Node000005" class="edge">
<title>Node4&#45;&gt;Node5</title>
<g id="a_edge5_Node000004_Node000005"><a xlink:title=" ">
<path fill="none" stroke="#63b8ff" d="M974.49,-285.8C972.79,-264.3 965.49,-208.14 935,-176 919.84,-160.02 898.21,-149.66 877.99,-143"/>
<polygon fill="#63b8ff" stroke="#63b8ff" points="878.8,-139.58 868.22,-140.01 876.76,-146.28 878.8,-139.58"/>
</a>
</g>
</g>
<!-- Node4&#45;&gt;Node11 -->
<g id="edge48_Node000004_Node000011" class="edge">
<title>Node4&#45;&gt;Node11</title>
<g id="a_edge48_Node000004_Node000011"><a xlink:title=" ">
<path fill="none" stroke="#63b8ff" d="M978.22,-285.9C988.02,-260.11 1018.98,-181.42 1054,-121 1059.61,-111.33 1066.81,-101.16 1072.96,-92.99"/>
<polygon fill="#63b8ff" stroke="#63b8ff" points="1075.77,-95.08 1079.1,-85.02 1070.22,-90.81 1075.77,-95.08"/>
</a>
</g>
</g>
<!-- Node12 -->
<g id="Node000012" class="node">
<title>Node12</title>
<g id="a_Node000012"><a xlink:href="EditorMath_8h.html" target="_top" xlink:title=" ">
<polygon fill="white" stroke="#666666" points="737,-250 591,-250 591,-231 737,-231 737,-250"/>
<text text-anchor="middle" x="664" y="-238" font-family="Helvetica,sans-Serif" font-size="10.00">engine/editor/EditorMath.h</text>
</a>
</g>
</g>
<!-- Node4&#45;&gt;Node12 -->
<g id="edge14_Node000004_Node000012" class="edge">
<title>Node4&#45;&gt;Node12</title>
<g id="a_edge14_Node000004_Node000012"><a xlink:title=" ">
<path fill="none" stroke="#63b8ff" d="M931.76,-287.13C877.69,-277.92 784.84,-262.09 723.94,-251.71"/>
<polygon fill="#63b8ff" stroke="#63b8ff" points="724.52,-248.26 714.08,-250.03 723.35,-255.16 724.52,-248.26"/>
</a>
</g>
</g>
<!-- Node20 -->
<g id="Node000020" class="node">
<title>Node20</title>
<g id="a_Node000020"><a xlink:href="macros_8h.html" target="_top" xlink:title=" ">
<polygon fill="white" stroke="#666666" points="1538,-85 1476,-85 1476,-66 1538,-66 1538,-85"/>
<text text-anchor="middle" x="1507" y="-73" font-family="Helvetica,sans-Serif" font-size="10.00">macros.h</text>
</a>
</g>
</g>
<!-- Node4&#45;&gt;Node20 -->
<g id="edge34_Node000004_Node000020" class="edge">
<title>Node4&#45;&gt;Node20</title>
<g id="a_edge34_Node000004_Node000020"><a xlink:title=" ">
<path fill="none" stroke="#63b8ff" d="M1018.12,-292.68C1105.64,-288.48 1301.02,-276.39 1362,-250 1431.15,-220.08 1451.37,-204.08 1491,-140 1499.32,-126.54 1503.33,-108.94 1505.25,-95.68"/>
<polygon fill="#63b8ff" stroke="#63b8ff" points="1508.77,-95.7 1506.45,-85.36 1501.81,-94.89 1508.77,-95.7"/>
</a>
</g>
</g>
<!-- Node4&#45;&gt;Node23 -->
<g id="edge38_Node000004_Node000023" class="edge">
<title>Node4&#45;&gt;Node23</title>
<g id="a_edge38_Node000004_Node000023"><a xlink:title=" ">
<path fill="none" stroke="#63b8ff" d="M931.99,-291.5C861.18,-286.16 715.52,-273.45 583.09,-249.97"/>
<polygon fill="#63b8ff" stroke="#63b8ff" points="583.63,-246.51 573.17,-248.19 582.39,-253.4 583.63,-246.51"/>
</a>
</g>
</g>
<!-- Node26 -->
<g id="Node000026" class="node">
<title>Node26</title>
<g id="a_Node000026"><a xlink:href="camera_8h.html" target="_top" xlink:title=" ">
<polygon fill="white" stroke="#666666" points="1320,-140 1258,-140 1258,-121 1320,-121 1320,-140"/>
<text text-anchor="middle" x="1289" y="-128" font-family="Helvetica,sans-Serif" font-size="10.00">camera.h</text>
</a>
</g>
</g>
<!-- Node4&#45;&gt;Node26 -->
<g id="edge45_Node000004_Node000026" class="edge">
<title>Node4&#45;&gt;Node26</title>
<g id="a_edge45_Node000004_Node000026"><a xlink:title=" ">
<path fill="none" stroke="#63b8ff" d="M991.44,-285.97C1042.83,-259.29 1200.7,-177.34 1263.17,-144.91"/>
<polygon fill="#63b8ff" stroke="#63b8ff" points="1265.08,-147.86 1272.34,-140.15 1261.86,-141.65 1265.08,-147.86"/>
</a>
</g>
</g>
<!-- Node6 -->
<g id="Node000006" class="node">
<title>Node6</title>
<g id="a_Node000006"><a xlink:title=" ">
<polygon fill="#e0e0e0" stroke="#999999" points="419.5,-85 372.5,-85 372.5,-66 419.5,-66 419.5,-85"/>
<text text-anchor="middle" x="396" y="-73" font-family="Helvetica,sans-Serif" font-size="10.00">vector</text>
</a>
</g>
</g>
<!-- Node5&#45;&gt;Node6 -->
<g id="edge6_Node000005_Node000006" class="edge">
<title>Node5&#45;&gt;Node6</title>
<g id="a_edge6_Node000005_Node000006"><a xlink:title=" ">
<path fill="none" stroke="#63b8ff" d="M757.68,-121.39C665.46,-109.95 500.46,-89.47 429.71,-80.68"/>
<polygon fill="#63b8ff" stroke="#63b8ff" points="429.94,-77.19 419.59,-79.43 429.08,-84.13 429.94,-77.19"/>
</a>
</g>
</g>
<!-- Node7 -->
<g id="Node000007" class="node">
<title>Node7</title>
<g id="a_Node000007"><a xlink:title=" ">
<polygon fill="#e0e0e0" stroke="#999999" points="1014,-85 958,-85 958,-66 1014,-66 1014,-85"/>
<text text-anchor="middle" x="986" y="-73" font-family="Helvetica,sans-Serif" font-size="10.00">optional</text>
</a>
</g>
</g>
<!-- Node5&#45;&gt;Node7 -->
<g id="edge7_Node000005_Node000007" class="edge">
<title>Node5&#45;&gt;Node7</title>
<g id="a_edge7_Node000005_Node000007"><a xlink:title=" ">
<path fill="none" stroke="#63b8ff" d="M849.19,-120.98C876.44,-112.13 919.3,-98.19 949.78,-88.28"/>
<polygon fill="#63b8ff" stroke="#63b8ff" points="951.18,-91.5 959.61,-85.08 949.01,-84.85 951.18,-91.5"/>
</a>
</g>
</g>
<!-- Node8 -->
<g id="Node000008" class="node">
<title>Node8</title>
<g id="a_Node000008"><a xlink:title=" ">
<polygon fill="#e0e0e0" stroke="#999999" points="812,-85 768,-85 768,-66 812,-66 812,-85"/>
<text text-anchor="middle" x="790" y="-73" font-family="Helvetica,sans-Serif" font-size="10.00">string</text>
</a>
</g>
</g>
<!-- Node5&#45;&gt;Node8 -->
<g id="edge8_Node000005_Node000008" class="edge">
<title>Node5&#45;&gt;Node8</title>
<g id="a_edge8_Node000005_Node000008"><a xlink:title=" ">
<path fill="none" stroke="#63b8ff" d="M817.55,-120.75C812.99,-113.42 806.33,-102.73 800.71,-93.7"/>
<polygon fill="#63b8ff" stroke="#63b8ff" points="803.6,-91.73 795.35,-85.09 797.66,-95.43 803.6,-91.73"/>
</a>
</g>
</g>
<!-- Node9 -->
<g id="Node000009" class="node">
<title>Node9</title>
<g id="a_Node000009"><a xlink:title=" ">
<polygon fill="#e0e0e0" stroke="#999999" points="940,-85 830,-85 830,-66 940,-66 940,-85"/>
<text text-anchor="middle" x="885" y="-73" font-family="Helvetica,sans-Serif" font-size="10.00">nlohmann/json.hpp</text>
</a>
</g>
</g>
<!-- Node5&#45;&gt;Node9 -->
<g id="edge9_Node000005_Node000009" class="edge">
<title>Node5&#45;&gt;Node9</title>
<g id="a_edge9_Node000005_Node000009"><a xlink:title=" ">
<path fill="none" stroke="#63b8ff" d="M832.96,-120.98C842.13,-113.15 855.94,-101.34 867.03,-91.86"/>
<polygon fill="#63b8ff" stroke="#63b8ff" points="869.53,-94.33 874.86,-85.17 864.98,-89.01 869.53,-94.33"/>
</a>
</g>
</g>
<!-- Node10 -->
<g id="Node000010" class="node">
<title>Node10</title>
<g id="a_Node000010"><a xlink:href="CoreMath_8h.html" target="_top" xlink:title=" ">
<polygon fill="white" stroke="#666666" points="749.5,-85 676.5,-85 676.5,-66 749.5,-66 749.5,-85"/>
<text text-anchor="middle" x="713" y="-73" font-family="Helvetica,sans-Serif" font-size="10.00">CoreMath.h</text>
</a>
</g>
</g>
<!-- Node5&#45;&gt;Node10 -->
<g id="edge10_Node000005_Node000010" class="edge">
<title>Node5&#45;&gt;Node10</title>
<g id="a_edge10_Node000005_Node000010"><a xlink:title=" ">
<path fill="none" stroke="#63b8ff" d="M805.33,-120.98C787.71,-112.5 760.42,-99.35 740.07,-89.54"/>
<polygon fill="#63b8ff" stroke="#63b8ff" points="741.52,-86.36 730.99,-85.17 738.48,-92.66 741.52,-86.36"/>
</a>
</g>
</g>
<!-- Node5&#45;&gt;Node11 -->
<g id="edge12_Node000005_Node000011" class="edge">
<title>Node5&#45;&gt;Node11</title>
<g id="a_edge12_Node000005_Node000011"><a xlink:title=" ">
<path fill="none" stroke="#63b8ff" d="M865.26,-120.98C911.04,-111.76 984.14,-97.03 1033.55,-87.07"/>
<polygon fill="#63b8ff" stroke="#63b8ff" points="1034.3,-90.49 1043.41,-85.08 1032.92,-83.63 1034.3,-90.49"/>
</a>
</g>
</g>
<!-- Node10&#45;&gt;Node3 -->
<g id="edge11_Node000010_Node000003" class="edge">
<title>Node10&#45;&gt;Node3</title>
<g id="a_edge11_Node000010_Node000003"><a xlink:title=" ">
<path fill="none" stroke="#63b8ff" d="M749.63,-67.57C752.8,-67.02 755.95,-66.49 759,-66 872.62,-47.81 1006.63,-30.75 1077.75,-22.03"/>
<polygon fill="#63b8ff" stroke="#63b8ff" points="1078.27,-25.49 1087.77,-20.81 1077.42,-18.55 1078.27,-25.49"/>
</a>
</g>
</g>
<!-- Node11&#45;&gt;Node3 -->
<g id="edge13_Node000011_Node000003" class="edge">
<title>Node11&#45;&gt;Node3</title>
<g id="a_edge13_Node000011_Node000003"><a xlink:title=" ">
<path fill="none" stroke="#63b8ff" d="M1092.2,-65.87C1098.4,-57.23 1108.11,-43.7 1115.86,-32.92"/>
<polygon fill="#63b8ff" stroke="#63b8ff" points="1118.79,-34.83 1121.78,-24.67 1113.1,-30.75 1118.79,-34.83"/>
</a>
</g>
</g>
<!-- Node12&#45;&gt;Node6 -->
<g id="edge19_Node000012_Node000006" class="edge">
<title>Node12&#45;&gt;Node6</title>
<g id="a_edge19_Node000012_Node000006"><a xlink:title=" ">
<path fill="none" stroke="#63b8ff" d="M612.42,-230.95C564.98,-222.43 498.69,-208.69 476,-195 437.35,-171.68 413.24,-121.69 402.52,-94.69"/>
<polygon fill="#63b8ff" stroke="#63b8ff" points="405.77,-93.39 398.95,-85.27 399.22,-95.86 405.77,-93.39"/>
</a>
</g>
</g>
<!-- Node12&#45;&gt;Node10 -->
<g id="edge18_Node000012_Node000010" class="edge">
<title>Node12&#45;&gt;Node10</title>
<g id="a_edge18_Node000012_Node000010"><a xlink:title=" ">
<path fill="none" stroke="#63b8ff" d="M666.63,-230.74C674.31,-205.2 696.79,-130.43 707.37,-95.23"/>
<polygon fill="#63b8ff" stroke="#63b8ff" points="710.83,-95.89 710.35,-85.31 704.12,-93.88 710.83,-95.89"/>
</a>
</g>
</g>
<!-- Node12&#45;&gt;Node11 -->
<g id="edge33_Node000012_Node000011" class="edge">
<title>Node12&#45;&gt;Node11</title>
<g id="a_edge33_Node000012_Node000011"><a xlink:title=" ">
<path fill="none" stroke="#63b8ff" d="M737.29,-238.69C793.84,-235.47 872.69,-225.22 935,-195 978.88,-173.72 977.28,-150.64 1016,-121 1030.59,-109.84 1048.02,-98.75 1061.84,-90.43"/>
<polygon fill="#63b8ff" stroke="#63b8ff" points="1063.93,-93.26 1070.75,-85.15 1060.36,-87.24 1063.93,-93.26"/>
</a>
</g>
</g>
<!-- Node13 -->
<g id="Node000013" class="node">
<title>Node13</title>
<g id="a_Node000013"><a xlink:title=" ">
<polygon fill="#e0e0e0" stroke="#999999" points="613,-85 475,-85 475,-66 613,-66 613,-85"/>
<text text-anchor="middle" x="544" y="-73" font-family="Helvetica,sans-Serif" font-size="10.00">libultraship/libultraship.h</text>
</a>
</g>
</g>
<!-- Node12&#45;&gt;Node13 -->
<g id="edge15_Node000012_Node000013" class="edge">
<title>Node12&#45;&gt;Node13</title>
<g id="a_edge15_Node000012_Node000013"><a xlink:title=" ">
<path fill="none" stroke="#63b8ff" d="M593.49,-230.95C540.85,-220.1 474.47,-195.53 453,-140 443.27,-114.84 471.4,-98.21 498.89,-88.3"/>
<polygon fill="#63b8ff" stroke="#63b8ff" points="500.15,-91.57 508.52,-85.08 497.92,-84.94 500.15,-91.57"/>
</a>
</g>
</g>
<!-- Node12&#45;&gt;Node14 -->
<g id="edge16_Node000012_Node000014" class="edge">
<title>Node12&#45;&gt;Node14</title>
<g id="a_edge16_Node000012_Node000014"><a xlink:title=" ">
<path fill="none" stroke="#63b8ff" d="M590.79,-231.62C477.31,-219.35 271.53,-196.9 268,-195 248.71,-184.62 233.58,-164.06 224.51,-149.13"/>
<polygon fill="#63b8ff" stroke="#63b8ff" points="227.46,-147.24 219.45,-140.31 221.39,-150.72 227.46,-147.24"/>
</a>
</g>
</g>
<!-- Node15 -->
<g id="Node000015" class="node">
<title>Node15</title>
<g id="a_Node000015"><a xlink:title=" ">
<polygon fill="#e0e0e0" stroke="#999999" points="327,-85 237,-85 237,-66 327,-66 327,-85"/>
<text text-anchor="middle" x="282" y="-73" font-family="Helvetica,sans-Serif" font-size="10.00">libultra/types.h</text>
</a>
</g>
</g>
<!-- Node12&#45;&gt;Node15 -->
<g id="edge17_Node000012_Node000015" class="edge">
<title>Node12&#45;&gt;Node15</title>
<g id="a_edge17_Node000012_Node000015"><a xlink:title=" ">
<path fill="none" stroke="#63b8ff" d="M590.55,-231.93C547.9,-225.69 493.91,-214.55 449,-195 388.18,-168.52 327.31,-117.69 298.76,-92.07"/>
<polygon fill="#63b8ff" stroke="#63b8ff" points="301.04,-89.41 291.29,-85.27 296.33,-94.59 301.04,-89.41"/>
</a>
</g>
</g>
<!-- Node16 -->
<g id="Node000016" class="node">
<title>Node16</title>
<g id="a_Node000016"><a xlink:href="GameObject_8h.html" target="_top" xlink:title=" ">
<polygon fill="white" stroke="#666666" points="598,-195 512,-195 512,-176 598,-176 598,-195"/>
<text text-anchor="middle" x="555" y="-183" font-family="Helvetica,sans-Serif" font-size="10.00">GameObject.h</text>
</a>
</g>
</g>
<!-- Node12&#45;&gt;Node16 -->
<g id="edge20_Node000012_Node000016" class="edge">
<title>Node12&#45;&gt;Node16</title>
<g id="a_edge20_Node000012_Node000016"><a xlink:title=" ">
<path fill="none" stroke="#63b8ff" d="M641.37,-230.98C622.31,-222.61 595.48,-209.7 576.69,-199.95"/>
<polygon fill="#63b8ff" stroke="#63b8ff" points="578.16,-196.76 567.68,-195.17 574.88,-202.95 578.16,-196.76"/>
</a>
</g>
</g>
<!-- Node18 -->
<g id="Node000018" class="node">
<title>Node18</title>
<g id="a_Node000018"><a xlink:title=" ">
<polygon fill="#e0e0e0" stroke="#999999" points="809.5,-195 692.5,-195 692.5,-176 809.5,-176 809.5,-195"/>
<text text-anchor="middle" x="751" y="-183" font-family="Helvetica,sans-Serif" font-size="10.00">fast/Fast3dWindow.h</text>
</a>
</g>
</g>
<!-- Node12&#45;&gt;Node18 -->
<g id="edge31_Node000012_Node000018" class="edge">
<title>Node12&#45;&gt;Node18</title>
<g id="a_edge31_Node000012_Node000018"><a xlink:title=" ">
<path fill="none" stroke="#63b8ff" d="M677.98,-230.98C691.47,-222.77 712.13,-210.18 728.04,-200.49"/>
<polygon fill="#63b8ff" stroke="#63b8ff" points="730.05,-203.36 736.77,-195.17 726.41,-197.38 730.05,-203.36"/>
</a>
</g>
</g>
<!-- Node19 -->
<g id="Node000019" class="node">
<title>Node19</title>
<g id="a_Node000019"><a xlink:title=" ">
<polygon fill="#e0e0e0" stroke="#999999" points="926,-195 828,-195 828,-176 926,-176 926,-195"/>
<text text-anchor="middle" x="877" y="-183" font-family="Helvetica,sans-Serif" font-size="10.00">fast/interpreter.h</text>
</a>
</g>
</g>
<!-- Node12&#45;&gt;Node19 -->
<g id="edge32_Node000012_Node000019" class="edge">
<title>Node12&#45;&gt;Node19</title>
<g id="a_edge32_Node000012_Node000019"><a xlink:title=" ">
<path fill="none" stroke="#63b8ff" d="M698.22,-230.98C734.76,-221.89 792.78,-207.46 832.76,-197.51"/>
<polygon fill="#63b8ff" stroke="#63b8ff" points="833.65,-200.89 842.51,-195.08 831.96,-194.1 833.65,-200.89"/>
</a>
</g>
</g>
<!-- Node16&#45;&gt;Node5 -->
<g id="edge27_Node000016_Node000005" class="edge">
<title>Node16&#45;&gt;Node5</title>
<g id="a_edge27_Node000016_Node000005"><a xlink:title=" ">
<path fill="none" stroke="#63b8ff" d="M598.06,-175.98C644.71,-166.76 719.2,-152.03 769.56,-142.07"/>
<polygon fill="#63b8ff" stroke="#63b8ff" points="770.47,-145.46 779.6,-140.08 769.11,-138.59 770.47,-145.46"/>
</a>
</g>
</g>
<!-- Node16&#45;&gt;Node6 -->
<g id="edge26_Node000016_Node000006" class="edge">
<title>Node16&#45;&gt;Node6</title>
<g id="a_edge26_Node000016_Node000006"><a xlink:title=" ">
<path fill="none" stroke="#63b8ff" d="M526.91,-175.91C505.42,-168.5 475.71,-156.4 453,-140 435.07,-127.05 418.67,-107.61 408.11,-93.65"/>
<polygon fill="#63b8ff" stroke="#63b8ff" points="410.79,-91.39 402.06,-85.39 405.14,-95.53 410.79,-91.39"/>
</a>
</g>
</g>
<!-- Node16&#45;&gt;Node10 -->
<g id="edge24_Node000016_Node000010" class="edge">
<title>Node16&#45;&gt;Node10</title>
<g id="a_edge24_Node000016_Node000010"><a xlink:title=" ">
<path fill="none" stroke="#63b8ff" d="M579.29,-175.87C599.27,-168.14 627.81,-155.63 650,-140 669.13,-126.52 687.58,-106.9 699.51,-93.05"/>
<polygon fill="#63b8ff" stroke="#63b8ff" points="702.29,-95.18 706.04,-85.27 696.93,-90.67 702.29,-95.18"/>
</a>
</g>
</g>
<!-- Node16&#45;&gt;Node11 -->
<g id="edge30_Node000016_Node000011" class="edge">
<title>Node16&#45;&gt;Node11</title>
<g id="a_edge30_Node000016_Node000011"><a xlink:title=" ">
<path fill="none" stroke="#63b8ff" d="M598.25,-177.95C602.89,-177.28 607.54,-176.61 612,-176 738.48,-158.58 773.98,-174.16 897,-140 917.13,-134.41 920.42,-128.28 940,-121 974.55,-108.16 1014.66,-96.13 1044.08,-87.83"/>
<polygon fill="#63b8ff" stroke="#63b8ff" points="1045.33,-91.11 1054.02,-85.05 1043.45,-84.37 1045.33,-91.11"/>
</a>
</g>
</g>
<!-- Node16&#45;&gt;Node12 -->
<g id="edge25_Node000016_Node000012" class="edge">
<title>Node16&#45;&gt;Node12</title>
<g id="a_edge25_Node000016_Node000012"><a xlink:title=" ">
<path fill="none" stroke="#63b8ff" d="M577.98,-195.17C597.14,-203.6 623.97,-216.51 642.65,-226.23"/>
<polygon fill="#63b8ff" stroke="#63b8ff" points="641.13,-229.39 651.6,-230.98 644.41,-223.2 641.13,-229.39"/>
</a>
</g>
</g>
<!-- Node16&#45;&gt;Node13 -->
<g id="edge21_Node000016_Node000013" class="edge">
<title>Node16&#45;&gt;Node13</title>
<g id="a_edge21_Node000016_Node000013"><a xlink:title=" ">
<path fill="none" stroke="#63b8ff" d="M582.97,-175.92C611.86,-165.49 650.68,-146.12 635,-121 625.35,-105.54 608.59,-95.3 592.07,-88.59"/>
<polygon fill="#63b8ff" stroke="#63b8ff" points="593.02,-85.21 582.42,-85.04 590.6,-91.78 593.02,-85.21"/>
</a>
</g>
</g>
<!-- Node16&#45;&gt;Node14 -->
<g id="edge22_Node000016_Node000014" class="edge">
<title>Node16&#45;&gt;Node14</title>
<g id="a_edge22_Node000016_Node000014"><a xlink:title=" ">
<path fill="none" stroke="#63b8ff" d="M511.94,-177.79C448.67,-167.93 330.91,-149.57 264.28,-139.18"/>
<polygon fill="#63b8ff" stroke="#63b8ff" points="264.46,-135.67 254.04,-137.59 263.38,-142.58 264.46,-135.67"/>
</a>
</g>
</g>
<!-- Node16&#45;&gt;Node15 -->
<g id="edge23_Node000016_Node000015" class="edge">
<title>Node16&#45;&gt;Node15</title>
<g id="a_edge23_Node000016_Node000015"><a xlink:title=" ">
<path fill="none" stroke="#63b8ff" d="M528.52,-175.85C502.69,-167.27 462.37,-153.47 428,-140 386.38,-123.68 339.08,-102.64 309.89,-89.36"/>
<polygon fill="#63b8ff" stroke="#63b8ff" points="311.27,-86.14 300.72,-85.17 308.36,-92.5 311.27,-86.14"/>
</a>
</g>
</g>
<!-- Node17 -->
<g id="Node000017" class="node">
<title>Node17</title>
<g id="a_Node000017"><a xlink:href="DefaultProperties_8h.html" target="_top" xlink:title=" ">
<polygon fill="white" stroke="#666666" points="625.5,-140 462.5,-140 462.5,-121 625.5,-121 625.5,-140"/>
<text text-anchor="middle" x="544" y="-128" font-family="Helvetica,sans-Serif" font-size="10.00">src/port/ui/DefaultProperties.h</text>
</a>
</g>
</g>
<!-- Node16&#45;&gt;Node17 -->
<g id="edge28_Node000016_Node000017" class="edge">
<title>Node16&#45;&gt;Node17</title>
<g id="a_edge28_Node000016_Node000017"><a xlink:title=" ">
<path fill="none" stroke="#63b8ff" d="M553.18,-175.75C551.74,-168.8 549.68,-158.85 547.87,-150.13"/>
<polygon fill="#63b8ff" stroke="#63b8ff" points="551.24,-149.17 545.78,-140.09 544.39,-150.59 551.24,-149.17"/>
</a>
</g>
</g>
<!-- Node17&#45;&gt;Node13 -->
<g id="edge29_Node000017_Node000013" class="edge">
<title>Node17&#45;&gt;Node13</title>
<g id="a_edge29_Node000017_Node000013"><a xlink:title=" ">
<path fill="none" stroke="#63b8ff" d="M544,-120.75C544,-113.8 544,-103.85 544,-95.13"/>
<polygon fill="#63b8ff" stroke="#63b8ff" points="547.5,-95.09 544,-85.09 540.5,-95.09 547.5,-95.09"/>
</a>
</g>
</g>
<!-- Node20&#45;&gt;Node3 -->
<g id="edge36_Node000020_Node000003" class="edge">
<title>Node20&#45;&gt;Node3</title>
<g id="a_edge36_Node000020_Node000003"><a xlink:title=" ">
<path fill="none" stroke="#63b8ff" d="M1475.59,-67.63C1472.69,-67.06 1469.79,-66.5 1467,-66 1364.87,-47.64 1244.55,-31.09 1178.22,-22.4"/>
<polygon fill="#63b8ff" stroke="#63b8ff" points="1178.42,-18.9 1168.06,-21.08 1177.52,-25.84 1178.42,-18.9"/>
</a>
</g>
</g>
<!-- Node21 -->
<g id="Node000021" class="node">
<title>Node21</title>
<g id="a_Node000021"><a xlink:href="math_8h.html" target="_top" xlink:title=" ">
<polygon fill="white" stroke="#666666" points="1480.5,-24.5 1429.5,-24.5 1429.5,-5.5 1480.5,-5.5 1480.5,-24.5"/>
<text text-anchor="middle" x="1455" y="-12.5" font-family="Helvetica,sans-Serif" font-size="10.00">math.h</text>
</a>
</g>
</g>
<!-- Node20&#45;&gt;Node21 -->
<g id="edge35_Node000020_Node000021" class="edge">
<title>Node20&#45;&gt;Node21</title>
<g id="a_edge35_Node000020_Node000021"><a xlink:title=" ">
<path fill="none" stroke="#63b8ff" d="M1499.33,-65.87C1491.49,-57.05 1479.14,-43.16 1469.46,-32.27"/>
<polygon fill="#63b8ff" stroke="#63b8ff" points="1471.96,-29.82 1462.7,-24.67 1466.73,-34.47 1471.96,-29.82"/>
</a>
</g>
</g>
<!-- Node22 -->
<g id="Node000022" class="node">
<title>Node22</title>
<g id="a_Node000022"><a xlink:title=" ">
<polygon fill="#e0e0e0" stroke="#999999" points="1617.5,-30 1498.5,-30 1498.5,0 1617.5,0 1617.5,-30"/>
<text text-anchor="start" x="1506.5" y="-18" font-family="Helvetica,sans-Serif" font-size="10.00">ship/utils/binarytools</text>
<text text-anchor="middle" x="1558" y="-7" font-family="Helvetica,sans-Serif" font-size="10.00">/endianness.h</text>
</a>
</g>
</g>
<!-- Node20&#45;&gt;Node22 -->
<g id="edge37_Node000020_Node000022" class="edge">
<title>Node20&#45;&gt;Node22</title>
<g id="a_edge37_Node000020_Node000022"><a xlink:title=" ">
<path fill="none" stroke="#63b8ff" d="M1514.53,-65.87C1520.93,-58.52 1530.42,-47.63 1538.9,-37.91"/>
<polygon fill="#63b8ff" stroke="#63b8ff" points="1541.76,-39.95 1545.69,-30.11 1536.49,-35.35 1541.76,-39.95"/>
</a>
</g>
</g>
<!-- Node23&#45;&gt;Node11 -->
<g id="edge44_Node000023_Node000011" class="edge">
<title>Node23&#45;&gt;Node11</title>
<g id="a_edge44_Node000023_Node000011"><a xlink:title=" ">
<path fill="none" stroke="#63b8ff" d="M562.53,-230.97C586.81,-217.11 637.56,-189.88 684,-176 790.71,-144.1 824.59,-169.45 932,-140 978.56,-127.23 1029.88,-104.12 1059.96,-89.57"/>
<polygon fill="#63b8ff" stroke="#63b8ff" points="1061.5,-92.72 1068.94,-85.18 1058.42,-86.43 1061.5,-92.72"/>
</a>
</g>
</g>
<!-- Node24 -->
<g id="Node000024" class="node">
<title>Node24</title>
<g id="a_Node000024"><a xlink:href="mk64_8h.html" target="_top" xlink:title=" ">
<polygon fill="white" stroke="#666666" points="119.5,-195 66.5,-195 66.5,-176 119.5,-176 119.5,-195"/>
<text text-anchor="middle" x="93" y="-183" font-family="Helvetica,sans-Serif" font-size="10.00">mk64.h</text>
</a>
</g>
</g>
<!-- Node23&#45;&gt;Node24 -->
<g id="edge39_Node000023_Node000024" class="edge">
<title>Node23&#45;&gt;Node24</title>
<g id="a_edge39_Node000023_Node000024"><a xlink:title=" ">
<path fill="none" stroke="#63b8ff" d="M522.89,-236.57C446.91,-227.72 219.19,-201.2 129.69,-190.77"/>
<polygon fill="#63b8ff" stroke="#63b8ff" points="130.07,-187.29 119.73,-189.61 129.26,-194.25 130.07,-187.29"/>
</a>
</g>
</g>
<!-- Node24&#45;&gt;Node3 -->
<g id="edge40_Node000024_Node000003" class="edge">
<title>Node24&#45;&gt;Node3</title>
<g id="a_edge40_Node000024_Node000003"><a xlink:title=" ">
<path fill="none" stroke="#63b8ff" d="M90.54,-175.79C87.39,-162.64 83.58,-137.51 95,-121 131.39,-68.39 165.63,-80.2 228,-66 391.59,-28.76 912.51,-18.83 1077.42,-16.58"/>
<polygon fill="#63b8ff" stroke="#63b8ff" points="1077.81,-20.08 1087.77,-16.44 1077.72,-13.08 1077.81,-20.08"/>
</a>
</g>
</g>
<!-- Node24&#45;&gt;Node14 -->
<g id="edge43_Node000024_Node000014" class="edge">
<title>Node24&#45;&gt;Node14</title>
<g id="a_edge43_Node000024_Node000014"><a xlink:title=" ">
<path fill="none" stroke="#63b8ff" d="M112.6,-175.98C132.32,-167.42 162.95,-154.11 185.58,-144.28"/>
<polygon fill="#63b8ff" stroke="#63b8ff" points="187.26,-147.37 195.04,-140.17 184.48,-140.94 187.26,-147.37"/>
</a>
</g>
</g>
<!-- Node25 -->
<g id="Node000025" class="node">
<title>Node25</title>
<g id="a_Node000025"><a xlink:href="string_8h.html" target="_top" xlink:title=" ">
<polygon fill="white" stroke="#666666" points="157.5,-140 104.5,-140 104.5,-121 157.5,-121 157.5,-140"/>
<text text-anchor="middle" x="131" y="-128" font-family="Helvetica,sans-Serif" font-size="10.00">string.h</text>
</a>
</g>
</g>
<!-- Node24&#45;&gt;Node25 -->
<g id="edge41_Node000024_Node000025" class="edge">
<title>Node24&#45;&gt;Node25</title>
<g id="a_edge41_Node000024_Node000025"><a xlink:title=" ">
<path fill="none" stroke="#63b8ff" d="M99.27,-175.75C104.59,-168.34 112.36,-157.5 118.88,-148.41"/>
<polygon fill="#63b8ff" stroke="#63b8ff" points="121.86,-150.26 124.84,-140.09 116.17,-146.18 121.86,-150.26"/>
</a>
</g>
</g>
<!-- Node25&#45;&gt;Node15 -->
<g id="edge42_Node000025_Node000015" class="edge">
<title>Node25&#45;&gt;Node15</title>
<g id="a_edge42_Node000025_Node000015"><a xlink:title=" ">
<path fill="none" stroke="#63b8ff" d="M155.26,-120.98C180.32,-112.19 219.63,-98.39 247.83,-88.49"/>
<polygon fill="#63b8ff" stroke="#63b8ff" points="249.02,-91.78 257.3,-85.17 246.7,-85.18 249.02,-91.78"/>
</a>
</g>
</g>
<!-- Node26&#45;&gt;Node3 -->
<g id="edge46_Node000026_Node000003" class="edge">
<title>Node26&#45;&gt;Node3</title>
<g id="a_edge46_Node000026_Node000003"><a xlink:title=" ">
<path fill="none" stroke="#63b8ff" d="M1276.9,-120.97C1249.51,-101.66 1182.52,-54.43 1148.51,-30.46"/>
<polygon fill="#63b8ff" stroke="#63b8ff" points="1150.43,-27.53 1140.24,-24.63 1146.4,-33.25 1150.43,-27.53"/>
</a>
</g>
</g>
<!-- Node26&#45;&gt;Node11 -->
<g id="edge47_Node000026_Node000011" class="edge">
<title>Node26&#45;&gt;Node11</title>
<g id="a_edge47_Node000026_Node000011"><a xlink:title=" ">
<path fill="none" stroke="#63b8ff" d="M1257.73,-121.33C1223.12,-112.3 1167.14,-97.68 1128.55,-87.61"/>
<polygon fill="#63b8ff" stroke="#63b8ff" points="1129.21,-84.17 1118.66,-85.03 1127.45,-90.94 1129.21,-84.17"/>
</a>
</g>
</g>
<!-- Node27&#45;&gt;Node3 -->
<g id="edge53_Node000027_Node000003" class="edge">
<title>Node27&#45;&gt;Node3</title>
<g id="a_edge53_Node000027_Node000003"><a xlink:title=" ">
<path fill="none" stroke="#63b8ff" d="M1182.57,-120.97C1172.96,-102.48 1150.04,-58.4 1137.17,-33.64"/>
<polygon fill="#63b8ff" stroke="#63b8ff" points="1140.2,-31.89 1132.49,-24.63 1133.99,-35.12 1140.2,-31.89"/>
</a>
</g>
</g>
<!-- Node27&#45;&gt;Node11 -->
<g id="edge54_Node000027_Node000011" class="edge">
<title>Node27&#45;&gt;Node11</title>
<g id="a_edge54_Node000027_Node000011"><a xlink:title=" ">
<path fill="none" stroke="#63b8ff" d="M1170.77,-120.98C1154.82,-112.61 1130.22,-99.7 1111.62,-89.95"/>
<polygon fill="#63b8ff" stroke="#63b8ff" points="1113,-86.72 1102.52,-85.17 1109.75,-92.92 1113,-86.72"/>
</a>
</g>
</g>
<!-- Node28&#45;&gt;Node26 -->
<g id="edge67_Node000028_Node000026" class="edge">
<title>Node28&#45;&gt;Node26</title>
<g id="a_edge67_Node000028_Node000026"><a xlink:title=" ">
<path fill="none" stroke="#63b8ff" d="M1302.68,-230.68C1297.77,-221.97 1290.81,-208.09 1288,-195 1284.85,-180.31 1285.34,-163.26 1286.48,-150.53"/>
<polygon fill="#63b8ff" stroke="#63b8ff" points="1290,-150.58 1287.63,-140.25 1283.04,-149.8 1290,-150.58"/>
</a>
</g>
</g>
<!-- Node29 -->
<g id="Node000029" class="node">
<title>Node29</title>
<g id="a_Node000029"><a xlink:href="actor__types_8h.html" target="_top" xlink:title=" ">
<polygon fill="white" stroke="#666666" points="1459.5,-140 1376.5,-140 1376.5,-121 1459.5,-121 1459.5,-140"/>
<text text-anchor="middle" x="1418" y="-128" font-family="Helvetica,sans-Serif" font-size="10.00">actor_types.h</text>
</a>
</g>
</g>
<!-- Node28&#45;&gt;Node29 -->
<g id="edge57_Node000028_Node000029" class="edge">
<title>Node28&#45;&gt;Node29</title>
<g id="a_edge57_Node000028_Node000029"><a xlink:title=" ">
<path fill="none" stroke="#63b8ff" d="M1350.7,-230.92C1371.48,-224.52 1394.94,-213.56 1409,-195 1418.56,-182.38 1420.28,-164.19 1419.91,-150.51"/>
<polygon fill="#63b8ff" stroke="#63b8ff" points="1423.39,-150.05 1419.25,-140.3 1416.41,-150.51 1423.39,-150.05"/>
</a>
</g>
</g>
<!-- Node31 -->
<g id="Node000031" class="node">
<title>Node31</title>
<g id="a_Node000031"><a xlink:href="code__800029B0_8h.html" target="_top" xlink:title=" ">
<polygon fill="white" stroke="#666666" points="1399.5,-195 1296.5,-195 1296.5,-176 1399.5,-176 1399.5,-195"/>
<text text-anchor="middle" x="1348" y="-183" font-family="Helvetica,sans-Serif" font-size="10.00">code_800029B0.h</text>
</a>
</g>
</g>
<!-- Node28&#45;&gt;Node31 -->
<g id="edge62_Node000028_Node000031" class="edge">
<title>Node28&#45;&gt;Node31</title>
<g id="a_edge62_Node000028_Node000031"><a xlink:title=" ">
<path fill="none" stroke="#63b8ff" d="M1314.61,-230.75C1320.26,-223.26 1328.54,-212.28 1335.45,-203.13"/>
<polygon fill="#63b8ff" stroke="#63b8ff" points="1338.29,-205.18 1341.52,-195.09 1332.7,-200.96 1338.29,-205.18"/>
</a>
</g>
</g>
<!-- Node29&#45;&gt;Node3 -->
<g id="edge58_Node000029_Node000003" class="edge">
<title>Node29&#45;&gt;Node3</title>
<g id="a_edge58_Node000029_Node000003"><a xlink:title=" ">
<path fill="none" stroke="#63b8ff" d="M1411.12,-120.55C1399.91,-106.62 1376.27,-79.89 1350,-66 1295.61,-37.24 1225.25,-24.97 1178.47,-19.77"/>
<polygon fill="#63b8ff" stroke="#63b8ff" points="1178.58,-16.26 1168.28,-18.71 1177.86,-23.22 1178.58,-16.26"/>
</a>
</g>
</g>
<!-- Node29&#45;&gt;Node11 -->
<g id="edge60_Node000029_Node000011" class="edge">
<title>Node29&#45;&gt;Node11</title>
<g id="a_edge60_Node000029_Node000011"><a xlink:title=" ">
<path fill="none" stroke="#63b8ff" d="M1376.29,-122.84C1319.14,-113.72 1216,-97.25 1149.3,-86.61"/>
<polygon fill="#63b8ff" stroke="#63b8ff" points="1149.75,-83.13 1139.33,-85.01 1148.65,-90.05 1149.75,-83.13"/>
</a>
</g>
</g>
<!-- Node29&#45;&gt;Node20 -->
<g id="edge59_Node000029_Node000020" class="edge">
<title>Node29&#45;&gt;Node20</title>
<g id="a_edge59_Node000029_Node000020"><a xlink:title=" ">
<path fill="none" stroke="#63b8ff" d="M1432.3,-120.98C1446.1,-112.77 1467.24,-100.18 1483.51,-90.49"/>
<polygon fill="#63b8ff" stroke="#63b8ff" points="1485.64,-93.29 1492.44,-85.17 1482.06,-87.28 1485.64,-93.29"/>
</a>
</g>
</g>
<!-- Node30 -->
<g id="Node000030" class="node">
<title>Node30</title>
<g id="a_Node000030"><a xlink:title=" ">
<polygon fill="#e0e0e0" stroke="#999999" points="1458,-85 1402,-85 1402,-66 1458,-66 1458,-85"/>
<text text-anchor="middle" x="1430" y="-73" font-family="Helvetica,sans-Serif" font-size="10.00">assert.h</text>
</a>
</g>
</g>
<!-- Node29&#45;&gt;Node30 -->
<g id="edge61_Node000029_Node000030" class="edge">
<title>Node29&#45;&gt;Node30</title>
<g id="a_edge61_Node000029_Node000030"><a xlink:title=" ">
<path fill="none" stroke="#63b8ff" d="M1419.98,-120.75C1421.57,-113.72 1423.86,-103.62 1425.85,-94.84"/>
<polygon fill="#63b8ff" stroke="#63b8ff" points="1429.26,-95.62 1428.06,-85.09 1422.43,-94.07 1429.26,-95.62"/>
</a>
</g>
</g>
<!-- Node31&#45;&gt;Node3 -->
<g id="edge64_Node000031_Node000003" class="edge">
<title>Node31&#45;&gt;Node3</title>
<g id="a_edge64_Node000031_Node000003"><a xlink:title=" ">
<path fill="none" stroke="#63b8ff" d="M1347.47,-175.72C1346.25,-162.48 1342.23,-137.24 1329,-121 1288.12,-70.8 1216.83,-41.77 1171.06,-27.42"/>
<polygon fill="#63b8ff" stroke="#63b8ff" points="1172,-24.05 1161.42,-24.5 1169.97,-30.75 1172,-24.05"/>
</a>
</g>
</g>
<!-- Node31&#45;&gt;Node20 -->
<g id="edge63_Node000031_Node000020" class="edge">
<title>Node31&#45;&gt;Node20</title>
<g id="a_edge63_Node000031_Node000020"><a xlink:title=" ">
<path fill="none" stroke="#63b8ff" d="M1391.96,-175.96C1416.69,-169.41 1446.94,-158.28 1469,-140 1483.5,-127.98 1493.86,-108.9 1500.06,-94.79"/>
<polygon fill="#63b8ff" stroke="#63b8ff" points="1503.45,-95.75 1503.99,-85.16 1496.97,-93.1 1503.45,-95.75"/>
</a>
</g>
</g>
<!-- Node31&#45;&gt;Node26 -->
<g id="edge66_Node000031_Node000026" class="edge">
<title>Node31&#45;&gt;Node26</title>
<g id="a_edge66_Node000031_Node000026"><a xlink:title=" ">
<path fill="none" stroke="#63b8ff" d="M1338.52,-175.98C1329.8,-168.15 1316.66,-156.34 1306.1,-146.86"/>
<polygon fill="#63b8ff" stroke="#63b8ff" points="1308.43,-144.25 1298.65,-140.17 1303.75,-149.46 1308.43,-144.25"/>
</a>
</g>
</g>
<!-- Node31&#45;&gt;Node29 -->
<g id="edge65_Node000031_Node000029" class="edge">
<title>Node31&#45;&gt;Node29</title>
<g id="a_edge65_Node000031_Node000029"><a xlink:title=" ">
<path fill="none" stroke="#63b8ff" d="M1359.25,-175.98C1369.8,-168 1385.8,-155.88 1398.44,-146.31"/>
<polygon fill="#63b8ff" stroke="#63b8ff" points="1400.69,-149 1406.55,-140.17 1396.46,-143.42 1400.69,-149"/>
</a>
</g>
</g>
</g>
</svg>
